<?xml version="1.0" standalone="no"?>
<!DOCTYPE svg PUBLIC "-//W3C//DTD SVG 20010904//EN"
 "http://www.w3.org/TR/2001/REC-SVG-20010904/DTD/svg10.dtd">
<svg version="1.0" xmlns="http://www.w3.org/2000/svg"
 width="800.000000pt" height="600.000000pt" viewBox="0 0 800.000000 600.000000"
 preserveAspectRatio="xMidYMid meet">

<g transform="translate(0.000000,600.000000) scale(0.100000,-0.100000)"
fill="#000000" stroke="none">
<path d="M0 3479 c1 -2513 1 -2520 22 -2541 22 -22 18 -64 -8 -84 -16 -13 -19
-60 -4 -69 13 -8 13 -82 0 -90 -17 -11 -11 -64 10 -85 26 -26 26 -64 0 -90
-11 -11 -20 -29 -20 -40 0 -11 9 -29 20 -40 26 -26 26 -65 0 -87 -20 -18 -28
-73 -10 -73 6 0 10 -22 10 -50 0 -27 -4 -50 -10 -50 -5 0 -10 -16 -10 -35 0
-19 5 -35 10 -35 15 0 13 -97 -3 -103 -6 -3 36 -6 95 -6 l106 -1 -10 28 c-20
53 14 110 48 81 17 -14 18 -81 2 -97 -9 -9 -2 -12 31 -12 37 0 42 2 36 18 -16
38 -16 59 2 81 12 14 24 20 35 16 21 -8 33 -58 19 -84 -6 -11 -11 -22 -11 -25
0 -3 43 -6 95 -6 92 0 95 1 85 19 -17 33 -12 79 11 91 40 22 66 -39 39 -91
-10 -17 -7 -19 29 -19 39 0 39 0 29 28 -20 53 14 110 48 81 17 -14 18 -81 2
-97 -9 -9 35 -12 199 -12 l211 0 -10 28 c-21 55 16 112 50 78 18 -17 18 -71 1
-92 -10 -12 10 -14 140 -14 147 0 151 1 141 19 -27 51 9 123 50 101 26 -14 35
-52 22 -90 l-11 -30 152 0 c117 0 148 3 139 12 -19 19 -15 85 5 97 42 23 70
-38 43 -90 -10 -17 -7 -19 29 -19 39 0 39 0 29 28 -20 53 14 110 48 81 17 -14
18 -81 2 -97 -9 -9 10 -12 89 -12 l101 0 -14 30 c-13 25 -13 34 -2 57 16 33
31 38 52 18 18 -18 22 -70 6 -80 -28 -17 -1 -25 84 -25 l94 0 -10 28 c-20 53
14 110 48 81 17 -14 18 -81 2 -97 -9 -9 -2 -12 31 -12 37 0 42 2 35 18 -13 27
-9 83 7 93 20 12 32 6 49 -24 14 -25 13 -30 -2 -57 l-17 -30 46 0 c37 0 44 3
35 12 -16 16 -15 83 2 97 34 29 68 -28 48 -81 l-10 -28 93 0 93 0 -10 28 c-20
53 14 110 48 81 17 -14 18 -81 2 -97 -9 -9 23 -12 145 -12 153 0 157 1 147 19
-27 52 1 113 43 90 19 -11 23 -59 7 -90 -10 -18 -7 -19 86 -19 88 0 95 2 89
18 -16 38 -16 59 2 81 12 14 24 20 35 16 21 -8 33 -58 19 -84 -16 -29 -15 -31
31 -31 33 0 39 3 30 12 -16 16 -15 83 2 97 34 29 68 -28 48 -81 l-10 -28 93 0
93 0 -10 28 c-20 53 14 110 48 81 17 -14 18 -81 2 -97 -9 -9 -2 -12 35 -12
l46 0 -17 30 c-15 27 -16 32 -2 57 19 34 33 38 55 17 17 -17 17 -48 0 -86 -6
-17 1 -18 93 -18 l100 0 -10 28 c-20 53 14 110 48 81 17 -14 18 -81 2 -97 -9
-9 48 -12 256 -12 252 0 268 1 261 18 -17 39 -16 59 4 82 l21 25 20 -24 c24
-28 25 -49 4 -79 -15 -22 -15 -22 32 -22 37 0 45 3 36 12 -16 16 -15 83 2 97
34 29 68 -28 48 -81 l-10 -28 150 0 c139 0 150 1 143 18 -16 38 -16 59 2 81
12 14 24 20 35 16 21 -8 33 -58 19 -84 -16 -29 -15 -31 31 -31 33 0 39 3 30
12 -16 16 -15 83 2 97 34 29 68 -28 48 -81 l-10 -28 93 0 93 0 -10 28 c-20 53
14 110 48 81 17 -14 18 -81 2 -97 -9 -9 11 -12 92 -12 81 0 101 3 92 12 -16
16 -15 83 2 97 34 29 68 -28 48 -81 l-10 -28 153 0 154 0 -17 30 c-15 27 -16
32 -2 57 19 34 33 38 55 17 17 -17 17 -48 0 -86 -6 -16 -1 -18 36 -18 33 0 40
3 31 12 -16 16 -15 83 2 97 34 29 68 -28 48 -81 l-10 -28 95 0 c87 0 94 2 88
18 -17 38 -17 69 0 86 21 21 36 17 54 -16 12 -21 12 -29 -2 -56 l-15 -32 43 0
43 0 -14 30 c-13 25 -13 34 -2 57 16 33 31 38 52 18 18 -18 22 -70 6 -80 -28
-17 -1 -25 84 -25 l94 0 -10 28 c-20 53 14 110 48 81 17 -14 18 -81 2 -97 -9
-9 10 -12 89 -12 l101 0 -14 30 c-13 25 -13 34 -2 57 16 33 31 38 52 18 18
-18 22 -70 6 -80 -22 -14 -8 -25 32 -25 33 0 39 3 30 12 -19 19 -15 86 6 97
41 22 69 -38 42 -90 -10 -18 -6 -19 144 -19 l154 0 -14 30 c-13 25 -13 34 -2
57 16 33 31 38 52 18 18 -19 21 -57 6 -86 -10 -17 -7 -19 32 -19 33 0 39 3 30
12 -21 21 -15 86 9 98 40 22 66 -39 39 -91 -10 -18 -7 -19 86 -19 88 0 95 2
89 18 -16 38 -16 59 2 81 12 14 24 20 35 16 21 -8 33 -58 19 -84 -6 -11 -11
-22 -11 -25 0 -3 43 -6 95 -6 92 0 95 1 85 19 -27 52 1 113 43 90 19 -11 23
-59 7 -90 -10 -17 -7 -19 30 -19 37 0 40 2 30 19 -15 28 -12 67 5 85 21 20 20
233 -1 254 -18 18 -18 52 1 79 21 29 20 228 -1 257 -18 26 -18 61 1 79 13 14
15 324 15 2621 l0 2606 -4000 0 -4001 0 1 -2521z m1478 1453 c2 -25 -1 -42 -7
-42 -6 0 -11 13 -11 29 0 16 -3 37 -7 47 -4 12 -2 15 8 12 8 -3 15 -21 17 -46z
m-4 -121 c3 -5 -1 -11 -9 -15 -16 -6 -19 -33 -9 -60 3 -9 10 -13 15 -10 5 3 9
1 9 -5 0 -18 -18 -21 -34 -5 -18 18 -21 56 -6 85 11 20 25 25 34 10z m6 -165
c0 -2 3 -13 7 -23 6 -16 5 -16 -10 -5 -14 12 -17 10 -23 -13 -8 -32 11 -58 26
-35 9 13 10 13 10 0 0 -26 -21 -40 -42 -29 -21 11 -25 78 -6 97 11 11 38 17
38 8z m8 -225 c-3 -42 -5 -46 -28 -46 -22 0 -25 5 -28 45 -3 33 1 47 14 57 28
21 45 -2 42 -56z m-8 -161 c0 -33 -4 -60 -10 -60 -5 0 -10 17 -10 38 0 21 -6
44 -12 50 -10 10 -10 15 2 22 26 17 30 11 30 -50z m6 -123 c10 -27 9 -70 -2
-74 -7 -2 -10 5 -7 20 3 14 0 28 -6 31 -7 5 -11 -4 -11 -23 0 -20 -5 -31 -14
-31 -23 0 -28 18 -16 55 12 36 45 49 56 22z m2134 -358 c0 -5 -4 -9 -10 -9 -5
0 -10 7 -10 16 0 8 5 12 10 9 6 -3 10 -10 10 -16z m1128 -4 c-3 -3 -9 2 -12
12 -6 14 -5 15 5 6 7 -7 10 -15 7 -18z m2589 3 c-3 -8 -6 -5 -6 6 -1 11 2 17
5 13 3 -3 4 -12 1 -19z m-5407 -196 c0 -33 -3 -43 -9 -32 -6 8 -8 17 -5 21 2
4 0 18 -5 32 -10 26 -5 41 10 31 5 -3 9 -26 9 -52z m3970 4 c0 -31 -15 -56
-32 -56 -5 0 -1 12 9 26 14 21 15 31 5 56 -9 25 -9 28 4 18 8 -7 14 -27 14
-44z m-1151 -3 c-1 -53 -6 -49 -11 10 -2 20 0 37 4 37 4 0 8 -21 7 -47z m2599
7 c2 -18 -1 -37 -6 -42 -6 -6 -11 7 -13 36 -5 53 14 59 19 6z m-6540 -132 c17
-17 15 -73 -3 -88 -33 -28 -60 34 -35 81 12 22 21 24 38 7z m1133 -21 c9 -35
-5 -77 -26 -77 -18 0 -37 42 -30 65 3 8 7 22 10 31 8 24 38 12 46 -19z m2817
-12 c2 -21 -1 -42 -7 -48 -8 -8 -11 1 -11 31 0 23 -5 42 -11 42 -5 0 -7 5 -4
11 13 20 30 2 33 -36z m1121 -7 c-1 -45 -2 -49 -9 -23 -11 44 -11 75 0 75 6 0
9 -23 9 -52z m582 25 c13 -34 -2 -78 -26 -78 -10 0 -20 5 -22 11 -2 7 4 11 14
10 24 -2 30 46 8 68 -15 15 -15 16 0 16 8 0 20 -12 26 -27z m900 3 c14 -29 4
-75 -17 -83 -22 -8 -32 7 -11 18 21 12 22 52 1 73 -14 15 -14 16 1 16 8 0 20
-11 26 -24z m-6553 -199 c3 -53 -12 -64 -21 -14 -3 17 -9 40 -13 51 -5 14 -3
17 12 14 15 -2 20 -13 22 -51z m1138 27 c10 -37 -7 -79 -31 -79 -24 0 -41 42
-31 79 5 19 13 26 31 26 18 0 26 -7 31 -26z m2814 -24 c0 -27 -4 -50 -10 -50
-5 0 -10 15 -10 34 0 19 -4 38 -10 41 -17 10 -11 25 10 25 17 0 20 -7 20 -50z
m1140 24 c7 -18 7 -34 -3 -52 -13 -28 -37 -36 -45 -14 -2 8 2 10 13 6 14 -6
16 -1 13 32 -2 25 -8 38 -15 37 -7 -2 -13 2 -13 7 0 22 41 9 50 -16z m565 -8
c8 -40 -9 -79 -33 -74 -9 2 -18 12 -20 23 -3 17 -1 17 7 5 10 -13 12 -13 21 0
11 17 12 32 4 54 -5 13 -9 14 -20 5 -11 -9 -14 -8 -14 5 0 10 9 16 25 16 20 0
25 -6 30 -34z m901 8 c10 -37 -7 -79 -31 -79 -12 0 -21 8 -23 20 -3 17 -1 17
7 5 10 -13 12 -13 21 0 5 8 10 22 10 30 0 8 -5 22 -10 30 -9 13 -11 13 -20 0
-5 -8 -10 -10 -10 -4 0 34 48 32 56 -2z m-6558 -193 c2 -40 0 -52 -10 -49 -13
5 -30 86 -21 101 13 22 28 -5 31 -52z m1131 45 c18 -21 10 -87 -12 -100 -15
-9 -21 -7 -33 8 -37 51 6 139 45 92z m2819 2 c17 -17 15 -83 -4 -98 -34 -29
-66 56 -34 94 15 19 22 20 38 4z m1128 -12 c8 -33 1 -79 -13 -83 -10 -4 -24
93 -14 103 10 10 21 2 27 -20z m578 -7 c11 -34 1 -75 -21 -83 -35 -14 -56 51
-32 95 14 27 41 20 53 -12z m896 12 c15 -29 12 -67 -6 -86 -21 -21 -38 -15
-42 16 -3 23 -3 23 11 5 14 -19 15 -19 21 2 4 12 4 31 1 43 -5 16 -10 18 -21
8 -11 -9 -14 -8 -14 3 0 33 34 38 50 9z m-6556 -147 c20 -8 31 -66 17 -93 -12
-22 -45 -28 -56 -10 -11 17 -8 79 5 94 14 17 13 17 34 9z m1134 -6 c17 -17 15
-83 -4 -99 -22 -19 -48 1 -52 39 -6 55 27 89 56 60z m1346 -4 c8 -20 8 -68 0
-88 -10 -27 -24 -7 -24 35 0 22 -5 39 -11 39 -8 0 -8 5 1 15 16 19 26 19 34
-1z m1470 10 c18 -7 23 -98 6 -109 -39 -24 -75 46 -46 90 18 28 18 27 40 19z
m1136 -45 c0 -28 -4 -39 -12 -37 -17 6 -30 71 -15 80 19 11 27 -1 27 -43z
m574 20 c11 -32 1 -78 -19 -86 -25 -9 -45 17 -45 56 0 62 45 83 64 30z m896
10 c15 -27 7 -33 -22 -17 -12 7 -25 14 -27 15 -1 1 0 6 4 12 10 18 33 13 45
-10z m-6550 -204 c0 -42 -3 -55 -15 -55 -11 0 -15 11 -15 40 0 23 -5 40 -11
40 -8 0 -8 5 1 15 26 31 40 17 40 -40z m1129 41 c7 -8 11 -31 9 -52 -6 -73
-68 -68 -68 5 0 54 32 79 59 47z m1349 -44 c2 -42 0 -52 -12 -52 -12 0 -16 10
-16 39 0 22 -5 41 -12 43 -17 6 1 30 20 26 13 -2 18 -16 20 -56z m1472 2 c0
-68 -22 -71 -31 -3 -7 49 -4 59 17 59 10 0 14 -14 14 -56z m1698 44 c16 -16
15 -70 -2 -94 -22 -28 -50 -7 -54 40 -5 54 26 84 56 54z m-6321 -24 c2 -13 1
-15 -4 -4 -3 8 -11 19 -17 23 -7 6 -6 7 4 4 8 -2 16 -12 17 -23z m-5 -66 c-13
-13 -42 -3 -42 13 0 8 5 8 16 -1 13 -11 16 -10 22 11 5 20 7 21 10 5 2 -10 -1
-23 -6 -28z m-2 -131 c0 -60 -17 -53 -20 8 -3 53 -2 57 10 50 6 -3 10 -29 10
-58z m694 32 c17 -50 -10 -97 -49 -83 -20 8 -30 67 -15 94 15 29 52 23 64 -11z
m1109 19 c2 -7 2 -21 -1 -31 -4 -17 -6 -17 -24 3 -10 11 -16 25 -13 30 9 14
33 12 38 -2z m1355 -46 c2 -42 0 -52 -12 -52 -12 0 -16 10 -16 39 0 22 -5 41
-12 43 -17 6 1 30 20 26 13 -2 18 -16 20 -56z m1483 31 c13 -34 3 -79 -19 -88
-20 -7 -52 27 -52 57 0 56 52 80 71 31z m1679 -29 c0 -68 -22 -71 -31 -3 -7
49 -4 59 17 59 10 0 14 -14 14 -56z m-6312 -126 c30 -30 3 -108 -33 -94 -15 6
-22 86 -8 99 10 11 28 8 41 -5z m686 -4 c16 -43 -4 -104 -34 -104 -13 0 -40
42 -40 63 0 48 59 81 74 41z m2466 -39 c0 -42 -3 -55 -15 -55 -11 0 -15 11
-15 39 0 22 -5 41 -12 43 -17 6 0 28 23 28 16 0 19 -7 19 -55z m1481 34 c14
-28 3 -85 -19 -94 -20 -7 -52 27 -52 57 0 53 48 78 71 37z m1679 -34 c0 -42
-3 -55 -15 -55 -10 0 -15 10 -15 33 0 17 -3 42 -6 55 -5 18 -2 22 15 22 19 0
21 -6 21 -55z m-5636 -121 c19 -18 21 -75 4 -92 -30 -30 -68 -1 -68 52 0 24
23 56 40 56 5 0 16 -7 24 -16z m2485 -16 c20 -36 5 -82 -28 -86 -28 -4 -41 12
-41 51 0 66 41 86 69 35z m3159 20 c13 -13 16 -66 6 -92 -7 -18 -49 -22 -59
-5 -4 6 -7 26 -7 45 0 53 31 81 60 52z m-6314 -14 c18 -48 -5 -103 -39 -90
-15 6 -22 86 -8 99 12 13 41 7 47 -9z m4616 8 c0 -14 -11 -21 -26 -15 -21 8
-17 23 6 23 11 0 20 -4 20 -8z m-4621 -166 c17 -21 10 -87 -11 -100 -25 -16
-43 6 -43 55 0 51 29 75 54 45z m681 -5 c14 -26 13 -74 -2 -89 -18 -18 -46
-14 -58 7 -22 42 -4 101 30 101 11 0 24 -9 30 -19z m2484 -19 c12 -44 -5 -82
-38 -82 -27 0 -36 16 -36 64 0 63 57 77 74 18z m3146 -22 c0 -47 -3 -60 -15
-60 -11 0 -15 12 -15 45 0 27 -5 45 -11 45 -8 0 -8 5 1 15 27 32 40 17 40 -45z
m-6311 -124 c18 -21 10 -87 -12 -100 -15 -9 -21 -7 -33 8 -37 51 6 139 45 92z
m679 2 c26 -26 5 -108 -28 -108 -17 0 -40 32 -40 56 0 53 38 82 68 52z m2486
-20 c19 -55 -22 -109 -59 -78 -18 15 -20 81 -3 98 20 20 52 10 62 -20z m3154
20 c17 -17 15 -83 -3 -98 -22 -19 -49 -8 -58 25 -17 59 25 109 61 73z m-6312
-182 c16 -63 -21 -122 -52 -82 -27 38 -11 106 26 106 12 0 22 -9 26 -24z
m1352 -27 c3 -51 -14 -75 -47 -64 -24 7 -35 52 -21 89 8 22 15 27 38 24 25 -3
27 -7 30 -49z m1806 19 c19 -55 -22 -109 -59 -78 -15 13 -20 65 -9 95 11 27
57 15 68 -17z m901 -22 c0 -36 -5 -52 -18 -60 -15 -9 -21 -7 -33 8 -29 40 -10
110 29 104 19 -3 22 -9 22 -52z m2259 38 c11 -29 6 -81 -9 -94 -38 -31 -77 26
-56 83 12 31 55 38 65 11z m-4977 -156 c28 -36 20 -102 -13 -115 -22 -8 -54
30 -54 63 0 23 31 64 49 64 5 0 13 -6 18 -12z m6207 -4 c19 -18 21 -85 4 -102
-32 -32 -68 -1 -68 57 0 28 21 61 40 61 5 0 16 -7 24 -16z m-7549 -48 c0 -36
-5 -52 -18 -60 -33 -20 -61 47 -41 99 4 10 16 15 33 13 24 -3 26 -7 26 -52z
m3143 -3 c-4 -67 -28 -89 -28 -24 0 22 -4 43 -10 46 -20 12 -10 35 15 35 25 0
26 -2 23 -57z m920 9 c3 -40 -10 -72 -29 -72 -18 0 -39 34 -39 64 0 38 17 58
45 54 16 -2 21 -12 23 -46z m2247 38 c3 -5 -3 -10 -14 -10 -12 0 -21 5 -21 10
0 6 6 10 14 10 8 0 18 -4 21 -10z m-6321 -166 c17 -43 0 -121 -21 -100 -13 13
-21 101 -9 108 17 11 23 10 30 -8z m1364 -16 c27 -57 -18 -118 -58 -78 -24 24
-26 57 -4 88 20 29 45 25 62 -10z m1790 -31 c2 -46 0 -57 -13 -57 -10 0 -15
10 -15 33 0 18 -5 38 -11 44 -16 16 -3 45 18 41 14 -2 19 -15 21 -61z m911 54
c14 -9 19 -80 7 -100 -9 -15 -39 -14 -54 1 -24 24 -8 108 21 108 7 0 18 -4 26
-9z m3501 -10 c22 -42 3 -111 -30 -111 -34 0 -55 91 -28 118 18 18 46 14 58
-7z m-7243 -23 c-3 -8 -6 -5 -6 6 -1 11 2 17 5 13 3 -3 4 -12 1 -19z m900 0
c-3 -8 -6 -5 -6 6 -1 11 2 17 5 13 3 -3 4 -12 1 -19z m790 0 c-3 -8 -6 -5 -6
6 -1 11 2 17 5 13 3 -3 4 -12 1 -19z m233 12 c0 -5 -4 -10 -10 -10 -5 0 -10 5
-10 10 0 6 5 10 10 10 6 0 10 -4 10 -10z m1457 -12 c-3 -8 -6 -5 -6 6 -1 11 2
17 5 13 3 -3 4 -12 1 -19z m800 0 c-3 -8 -6 -5 -6 6 -1 11 2 17 5 13 3 -3 4
-12 1 -19z m343 12 c0 -5 -2 -10 -4 -10 -3 0 -8 5 -11 10 -3 6 -1 10 4 10 6 0
11 -4 11 -10z m557 -12 c-3 -8 -6 -5 -6 6 -1 11 2 17 5 13 3 -3 4 -12 1 -19z
m343 7 c0 -8 -2 -15 -4 -15 -2 0 -6 7 -10 15 -3 8 -1 15 4 15 6 0 10 -7 10
-15z m217 -7 c-3 -8 -6 -5 -6 6 -1 11 2 17 5 13 3 -3 4 -12 1 -19z m568 12 c3
-5 1 -10 -4 -10 -6 0 -11 5 -11 10 0 6 2 10 4 10 3 0 8 -4 11 -10z m222 -12
c-3 -8 -6 -5 -6 6 -1 11 2 17 5 13 3 -3 4 -12 1 -19z m343 7 c0 -8 -2 -15 -4
-15 -2 0 -6 7 -10 15 -3 8 -1 15 4 15 6 0 10 -7 10 -15z m557 -7 c-3 -8 -6 -5
-6 6 -1 11 2 17 5 13 3 -3 4 -12 1 -19z m-7648 -141 c15 -18 6 -25 -24 -19
-25 4 -31 13 -18 25 10 11 30 8 42 -6z m1349 -50 c2 -44 0 -57 -11 -57 -17 0
-27 21 -27 54 0 12 -6 28 -12 34 -10 10 -10 15 2 22 32 21 45 7 48 -53z m2723
31 c16 -59 -20 -108 -56 -78 -18 15 -20 63 -4 91 15 29 51 21 60 -13z m3487
20 c7 -7 12 -28 12 -48 0 -41 -14 -60 -46 -60 -25 0 -34 17 -34 64 0 35 15 56
40 56 9 0 21 -5 28 -12z m-7458 -45 c0 -44 -5 -41 -14 10 -5 27 -4 37 3 32 6
-3 11 -22 11 -42z m560 0 c0 -45 -5 -40 -13 10 -3 22 -2 35 4 32 5 -4 9 -22 9
-42z m1690 0 c0 -45 -5 -40 -13 10 -3 22 -2 35 4 32 5 -4 9 -22 9 -42z m340 0
c0 -44 -5 -41 -14 10 -5 27 -4 37 3 32 6 -3 11 -22 11 -42z m449 5 c-1 -41 -1
-41 -8 -12 -4 17 -11 36 -15 42 -4 7 -1 12 8 12 12 0 16 -10 15 -42z m451 -5
c0 -44 -5 -41 -14 10 -5 27 -4 37 3 32 6 -3 11 -22 11 -42z m110 0 c0 -45 -5
-40 -13 10 -3 22 -2 35 4 32 5 -4 9 -22 9 -42z m690 0 c0 -44 -5 -41 -14 10
-5 27 -4 37 3 32 6 -3 11 -22 11 -42z m560 0 c0 -45 -5 -40 -13 10 -3 22 -2
35 4 32 5 -4 9 -22 9 -42z m450 0 c0 -45 -5 -40 -13 10 -3 22 -2 35 4 32 5 -4
9 -22 9 -42z m449 14 c0 -21 -1 -21 -9 -2 -12 28 -12 37 0 30 6 -3 10 -16 9
-28z m340 0 c0 -21 -1 -21 -9 -2 -12 28 -12 37 0 30 6 -3 10 -16 9 -28z m451
-14 c0 -45 -5 -40 -13 10 -3 22 -2 35 4 32 5 -4 9 -22 9 -42z m-6201 5 c0 -28
-2 -30 -9 -13 -12 28 -12 45 0 45 6 0 10 -15 9 -32z m450 -5 c-1 -34 -2 -35
-9 -13 -11 36 -11 50 0 50 6 0 10 -17 9 -37z m783 2 c-6 -34 -12 -32 -12 6 0
16 4 28 9 25 4 -3 6 -17 3 -31z m1235 3 c-3 -7 -5 -2 -5 12 0 14 2 19 5 13 2
-7 2 -19 0 -25z m450 -20 c-2 -13 -4 -5 -4 17 -1 22 1 32 4 23 2 -10 2 -28 0
-40z m583 15 c0 -43 -5 -41 -13 5 -4 18 -2 32 3 32 6 0 10 -16 10 -37z m667
-15 c-2 -13 -4 -5 -4 17 -1 22 1 32 4 23 2 -10 2 -28 0 -40z m573 31 c0 -11
-4 -17 -10 -14 -5 3 -10 13 -10 21 0 8 5 14 10 14 6 0 10 -9 10 -21z m777 -31
c-2 -13 -4 -5 -4 17 -1 22 1 32 4 23 2 -10 2 -28 0 -40z m913 38 c0 -8 -4 -18
-10 -21 -5 -3 -10 3 -10 14 0 12 5 21 10 21 6 0 10 -6 10 -14z m327 -18 c-3
-7 -5 -2 -5 12 0 14 2 19 5 13 2 -7 2 -19 0 -25z m450 -15 c-3 -10 -5 -2 -5
17 0 19 2 27 5 18 2 -10 2 -26 0 -35z m-7310 15 c-3 -8 -6 -5 -6 6 -1 11 2 17
5 13 3 -3 4 -12 1 -19z m180 -25 c-3 -10 -5 -2 -5 17 0 19 2 27 5 18 2 -10 2
-26 0 -35z m733 17 c0 -10 -4 -22 -10 -25 -6 -4 -10 7 -10 25 0 18 4 29 10 25
6 -3 10 -15 10 -25z m327 -7 c-3 -10 -5 -4 -5 12 0 17 2 24 5 18 2 -7 2 -21 0
-30z m630 -10 c-3 -10 -5 -2 -5 17 0 19 2 27 5 18 2 -10 2 -26 0 -35z m270 0
c-3 -10 -5 -2 -5 17 0 19 2 27 5 18 2 -10 2 -26 0 -35z m1021 11 c-3 -14 -5
-12 -10 9 -3 19 -2 25 4 19 6 -6 8 -18 6 -28z m335 17 c2 -10 1 -25 -4 -32 -6
-10 -9 -4 -9 19 0 36 5 42 13 13z m344 -28 c-3 -10 -5 -2 -5 17 0 19 2 27 5
18 2 -10 2 -26 0 -35z m900 0 c-3 -10 -5 -2 -5 17 0 19 2 27 5 18 2 -10 2 -26
0 -35z m180 0 c-3 -10 -5 -2 -5 17 0 19 2 27 5 18 2 -10 2 -26 0 -35z m270 0
c-3 -10 -5 -2 -5 17 0 19 2 27 5 18 2 -10 2 -26 0 -35z m180 0 c-3 -10 -5 -2
-5 17 0 19 2 27 5 18 2 -10 2 -26 0 -35z m610 0 c-3 -10 -5 -2 -5 17 0 19 2
27 5 18 2 -10 2 -26 0 -35z m180 0 c-3 -10 -5 -2 -5 17 0 19 2 27 5 18 2 -10
2 -26 0 -35z m270 0 c-3 -10 -5 -2 -5 17 0 19 2 27 5 18 2 -10 2 -26 0 -35z
m968 18 c0 -16 -3 -27 -7 -24 -13 7 -7 53 6 53 1 0 1 -13 1 -29z m-7558 -18
c-3 -10 -5 -4 -5 12 0 17 2 24 5 18 2 -7 2 -21 0 -30z m50 0 c-3 -10 -5 -4 -5
12 0 17 2 24 5 18 2 -7 2 -21 0 -30z m60 5 c-3 -7 -5 -2 -5 12 0 14 2 19 5 13
2 -7 2 -19 0 -25z m280 0 c-3 -7 -5 -2 -5 12 0 14 2 19 5 13 2 -7 2 -19 0 -25z
m400 -5 c-3 -10 -5 -4 -5 12 0 17 2 24 5 18 2 -7 2 -21 0 -30z m50 5 c-3 -7
-5 -2 -5 12 0 14 2 19 5 13 2 -7 2 -19 0 -25z m170 0 c-3 -7 -5 -2 -5 12 0 14
2 19 5 13 2 -7 2 -19 0 -25z m345 3 c2 -17 1 -28 -4 -25 -8 5 -12 54 -4 54 2
0 6 -13 8 -29z m275 -3 c-3 -7 -5 -2 -5 12 0 14 2 19 5 13 2 -7 2 -19 0 -25z
m60 -5 c-3 -10 -5 -4 -5 12 0 17 2 24 5 18 2 -7 2 -21 0 -30z m50 5 c-3 -7 -5
-2 -5 12 0 14 2 19 5 13 2 -7 2 -19 0 -25z m65 3 c2 -17 1 -28 -4 -25 -8 5
-12 54 -4 54 2 0 6 -13 8 -29z m45 -8 c-3 -10 -5 -4 -5 12 0 17 2 24 5 18 2
-7 2 -21 0 -30z m230 5 c-3 -7 -5 -2 -5 12 0 14 2 19 5 13 2 -7 2 -19 0 -25z
m170 0 c-3 -7 -5 -2 -5 12 0 14 2 19 5 13 2 -7 2 -19 0 -25z m790 -5 c-3 -10
-5 -4 -5 12 0 17 2 24 5 18 2 -7 2 -21 0 -30z m50 5 c-3 -7 -5 -2 -5 12 0 14
2 19 5 13 2 -7 2 -19 0 -25z m510 0 c-3 -7 -5 -2 -5 12 0 14 2 19 5 13 2 -7 2
-19 0 -25z m350 -5 c-3 -10 -5 -4 -5 12 0 17 2 24 5 18 2 -7 2 -21 0 -30z
m340 0 c-3 -10 -5 -4 -5 12 0 17 2 24 5 18 2 -7 2 -21 0 -30z m50 5 c-3 -7 -5
-2 -5 12 0 14 2 19 5 13 2 -7 2 -19 0 -25z m290 -5 c-3 -10 -5 -4 -5 12 0 17
2 24 5 18 2 -7 2 -21 0 -30z m50 5 c-3 -7 -5 -2 -5 12 0 14 2 19 5 13 2 -7 2
-19 0 -25z m170 0 c-3 -7 -5 -2 -5 12 0 14 2 19 5 13 2 -7 2 -19 0 -25z m280
0 c-3 -7 -5 -2 -5 12 0 14 2 19 5 13 2 -7 2 -19 0 -25z m170 0 c-3 -7 -5 -2
-5 12 0 14 2 19 5 13 2 -7 2 -19 0 -25z m280 0 c-3 -7 -5 -2 -5 12 0 14 2 19
5 13 2 -7 2 -19 0 -25z m515 3 c2 -17 1 -28 -4 -25 -8 5 -12 54 -4 54 2 0 6
-13 8 -29z m275 -3 c-3 -7 -5 -2 -5 12 0 14 2 19 5 13 2 -7 2 -19 0 -25z m175
3 c2 -17 1 -28 -4 -25 -8 5 -12 54 -4 54 2 0 6 -13 8 -29z m335 -8 c-3 -10 -5
-4 -5 12 0 17 2 24 5 18 2 -7 2 -21 0 -30z m50 0 c-3 -10 -5 -4 -5 12 0 17 2
24 5 18 2 -7 2 -21 0 -30z m-4570 5 c-3 -8 -6 -5 -6 6 -1 11 2 17 5 13 3 -3 4
-12 1 -19z m462 -23 c0 -5 -4 -3 -9 5 -5 8 -9 22 -9 30 0 16 17 -16 18 -35z
m444 25 c3 -11 1 -18 -4 -14 -5 3 -9 12 -9 20 0 20 7 17 13 -6z m-1683 -5 c0
-8 -2 -15 -4 -15 -2 0 -6 7 -10 15 -3 8 -1 15 4 15 6 0 10 -7 10 -15z m-399
-122 c15 -41 0 -87 -31 -91 -42 -6 -65 51 -40 99 16 30 58 25 71 -8z m2699
-33 c0 -47 -3 -60 -15 -60 -11 0 -15 12 -15 44 0 25 -5 46 -12 48 -17 6 0 28
23 28 17 0 19 -7 19 -60z m3499 46 c17 -21 10 -87 -11 -100 -28 -17 -52 5 -56
48 -4 41 11 66 38 66 10 0 23 -6 29 -14z m-7451 -8 c26 -26 8 -88 -25 -88 -20
0 -34 45 -23 72 8 20 9 18 9 -14 1 -40 18 -59 32 -37 13 21 11 46 -7 63 -8 9
-12 16 -7 16 5 0 14 -5 21 -12z m106 6 c21 -8 21 -67 1 -84 -24 -20 -45 -4
-45 33 0 18 5 38 12 45 14 14 12 14 32 6z m92 -10 c-18 -17 -20 -42 -7 -63 14
-22 31 -3 32 37 0 32 1 34 9 14 11 -27 -3 -72 -23 -72 -21 0 -37 22 -37 50 0
26 16 50 33 50 5 0 1 -7 -7 -16z m132 -33 c2 -30 0 -41 -8 -36 -6 4 -9 9 -7
12 3 2 1 20 -3 39 -6 25 -5 34 3 31 7 -2 13 -23 15 -46z m120 37 c26 -26 8
-88 -25 -88 -20 0 -34 45 -23 72 8 20 9 18 9 -14 1 -40 18 -59 32 -37 13 21
11 46 -7 63 -8 9 -12 16 -7 16 5 0 14 -5 21 -12z m106 6 c22 -8 22 -82 1 -90
-36 -14 -62 55 -33 84 14 14 12 14 32 6z m222 -8 c3 -8 4 -29 2 -48 -3 -32 -3
-32 -14 15 -6 26 -7 47 -2 47 5 0 11 -6 14 -14z m123 0 c28 -34 -11 -108 -40
-79 -17 17 -15 73 2 84 19 12 25 11 38 -5z m233 -11 c8 -19 8 -31 0 -50 -19
-42 -62 -25 -62 25 0 50 43 67 62 25z m318 -22 c0 -25 -2 -44 -4 -42 -8 10
-13 89 -5 89 5 0 9 -21 9 -47z m132 22 c8 -19 8 -31 0 -50 -19 -42 -62 -25
-62 25 0 50 43 67 62 25z m97 -22 c-1 -46 -2 -47 -8 -13 -4 20 -11 41 -15 48
-4 7 -1 12 8 12 13 0 16 -11 15 -47z m119 35 c29 -29 3 -98 -33 -84 -19 7 -21
82 -2 89 19 8 22 8 35 -5z m106 6 c22 -8 22 -82 1 -90 -36 -14 -62 55 -33 84
14 14 12 14 32 6z m225 -41 c-1 -27 -3 -39 -6 -28 -2 11 -8 32 -13 48 -7 21
-6 27 6 27 10 0 14 -12 13 -47z m119 35 c30 -30 4 -96 -32 -82 -28 11 -16 94
14 94 3 0 11 -5 18 -12z m111 3 c17 -11 19 -67 2 -84 -29 -29 -68 45 -40 79
13 16 19 17 38 5z m123 -16 c13 -29 -2 -75 -25 -75 -33 0 -47 43 -27 81 15 26
38 24 52 -6z m98 -22 c0 -55 -5 -54 -14 5 -4 26 -2 42 4 42 5 0 10 -21 10 -47z
m229 38 c17 -11 19 -67 2 -84 -29 -29 -68 45 -40 79 13 16 19 17 38 5z m123
-16 c13 -30 -3 -75 -27 -75 -24 0 -40 45 -27 75 6 14 19 25 27 25 8 0 21 -11
27 -25z m97 -22 c-1 -46 -2 -47 -8 -13 -4 20 -11 41 -15 48 -4 7 -1 12 8 12
13 0 16 -11 15 -47z m115 41 c20 -8 22 -67 2 -83 -23 -19 -46 -2 -46 33 0 18
5 37 12 44 14 14 12 14 32 6z m112 -20 c4 -14 2 -35 -3 -47 -9 -19 -11 -15
-14 26 -4 50 6 64 17 21z m128 4 c14 -22 -3 -72 -27 -76 -26 -5 -43 41 -28 74
12 28 37 29 55 2z m104 10 c26 -26 8 -88 -25 -88 -20 0 -34 46 -23 75 10 27
29 32 48 13z m106 6 c22 -9 22 -80 0 -88 -36 -14 -62 52 -32 82 14 14 12 14
32 6z m114 -34 c2 -18 -1 -37 -6 -42 -6 -6 -11 7 -13 36 -5 53 14 59 19 6z
m130 28 c26 -26 8 -88 -25 -88 -20 0 -36 50 -24 75 8 17 10 15 10 -17 1 -40
18 -59 32 -37 13 21 11 46 -7 63 -8 9 -12 16 -7 16 5 0 14 -5 21 -12z m232
-13 c11 -29 -3 -75 -23 -75 -21 0 -37 22 -37 50 0 50 44 68 60 25z m209 -22
c-1 -46 -2 -47 -8 -13 -4 20 -11 41 -15 48 -4 7 -1 12 8 12 13 0 16 -11 15
-47z m111 0 c0 -25 -2 -44 -4 -42 -8 10 -13 89 -5 89 5 0 9 -21 9 -47z m96 31
c-18 -17 -20 -42 -7 -63 14 -22 31 -3 32 37 0 32 1 34 9 14 11 -27 -3 -72 -23
-72 -21 0 -37 22 -37 50 0 26 16 50 33 50 5 0 1 -7 -7 -16z m252 4 c26 -26 8
-88 -25 -88 -20 0 -34 45 -23 72 8 20 9 18 9 -14 1 -40 18 -59 32 -37 13 21
11 46 -7 63 -8 9 -12 16 -7 16 5 0 14 -5 21 -12z m102 -35 c0 -25 -2 -44 -4
-42 -8 10 -13 89 -5 89 5 0 9 -21 9 -47z m131 24 c12 -27 -3 -77 -24 -77 -21
0 -37 22 -37 50 0 49 42 68 61 27z m113 1 c14 -22 -3 -72 -27 -76 -26 -5 -43
41 -28 74 12 28 37 29 55 2z m105 8 c28 -34 -11 -108 -40 -79 -17 17 -15 73 2
84 19 12 25 11 38 -5z m101 -33 c0 -25 -2 -44 -4 -42 -8 10 -13 89 -5 89 5 0
9 -21 9 -47z m132 22 c8 -19 8 -31 0 -50 -19 -42 -62 -25 -62 25 0 50 43 67
62 25z m217 11 c28 -34 -11 -108 -40 -79 -17 17 -15 73 2 84 19 12 25 11 38
-5z m119 -32 c2 -31 -1 -43 -14 -48 -36 -14 -62 52 -32 82 24 24 43 9 46 -34z
m114 21 c8 -19 8 -31 0 -50 -19 -42 -62 -25 -62 25 0 50 43 67 62 25z m216 13
c29 -29 3 -98 -33 -84 -19 7 -21 82 -2 89 19 8 22 8 35 -5z m102 -35 c0 -25
-2 -44 -4 -42 -8 10 -13 89 -5 89 5 0 9 -21 9 -47z m238 35 c29 -29 3 -98 -33
-85 -20 8 -29 51 -16 74 9 15 10 12 11 -19 0 -40 17 -59 31 -37 13 21 11 46
-7 63 -8 9 -12 16 -7 16 5 0 14 -5 21 -12z m102 -35 c0 -25 -2 -44 -4 -42 -8
10 -13 89 -5 89 5 0 9 -21 9 -47z m110 0 c0 -25 -2 -44 -4 -42 -8 10 -13 89
-5 89 5 0 9 -21 9 -47z m132 22 c8 -19 8 -31 0 -50 -19 -42 -62 -25 -62 25 0
50 43 67 62 25z m216 13 c29 -29 3 -98 -33 -84 -19 7 -21 82 -2 89 19 8 22 8
35 -5z m101 -35 c-1 -53 -6 -49 -11 10 -2 20 0 37 4 37 4 0 8 -21 7 -47z m133
22 c13 -30 -3 -75 -27 -75 -8 0 -21 11 -27 25 -13 30 3 75 27 75 8 0 21 -11
27 -25z m326 -8 c2 -15 -1 -34 -6 -43 -8 -13 -11 -7 -13 29 -4 50 13 62 19 14z
m124 8 c13 -30 -3 -75 -27 -75 -24 0 -40 45 -27 75 6 14 19 25 27 25 8 0 21
-11 27 -25z m-6423 -159 c19 -40 4 -90 -29 -94 -48 -7 -69 69 -29 109 25 25
40 21 58 -15z m6195 18 c30 -29 13 -104 -22 -104 -27 0 -42 20 -42 56 0 31 21
64 40 64 5 0 16 -7 24 -16z m-3494 -54 c0 -47 -3 -60 -15 -60 -11 0 -15 12
-15 44 0 25 -5 46 -12 48 -17 6 0 28 23 28 17 0 19 -7 19 -60z m-3942 12 c6
-58 -38 -85 -60 -37 -16 36 4 78 35 73 17 -2 23 -11 25 -36z m107 -12 c0 -41
-2 -45 -25 -45 -21 0 -26 5 -28 33 -5 47 4 64 30 60 20 -3 23 -9 23 -48z m103
10 c2 -18 -1 -37 -6 -42 -6 -6 -11 7 -13 36 -5 53 14 59 19 6z m128 14 c8 -30
-10 -74 -29 -74 -21 0 -37 22 -37 50 0 51 54 71 66 24z m93 -21 c-1 -46 -2
-47 -8 -13 -4 20 -11 41 -15 48 -4 7 -1 12 8 12 13 0 16 -11 15 -47z m126 -3
c0 -41 -2 -45 -25 -45 -21 0 -26 5 -28 33 -5 47 4 64 30 60 20 -3 23 -9 23
-48z m215 4 c0 -55 -16 -50 -22 6 -2 28 0 40 9 40 9 0 13 -15 13 -46z m128 8
c6 -59 -40 -85 -59 -35 -14 38 3 75 34 71 17 -2 23 -11 25 -36z m220 26 c16
-16 15 -50 -2 -74 -12 -15 -18 -17 -33 -8 -21 13 -27 36 -19 70 7 26 34 32 54
12z m322 -35 c0 -25 -2 -44 -4 -42 -8 10 -13 89 -5 89 5 0 9 -21 9 -47z m128
35 c16 -16 15 -50 -2 -74 -12 -15 -18 -17 -33 -8 -21 13 -27 36 -19 70 7 26
34 32 54 12z m101 -35 c-1 -27 -3 -39 -6 -28 -2 11 -8 32 -13 48 -7 21 -6 27
6 27 10 0 14 -12 13 -47z m129 9 c6 -57 -39 -86 -58 -37 -14 37 4 77 33 73 17
-2 23 -11 25 -36z m95 31 c3 -5 1 -26 -3 -48 -7 -38 -8 -38 -9 -8 0 17 -4 38
-7 47 -6 16 11 23 19 9z m241 -9 c24 -62 -29 -118 -56 -59 -8 19 -8 31 0 50
13 28 47 34 56 9z m114 -25 c5 -59 -49 -83 -60 -26 -7 39 8 69 34 65 18 -2 24
-10 26 -39z m113 18 c7 -15 7 -31 0 -50 -18 -47 -61 -28 -61 28 0 18 3 35 7
38 14 15 44 6 54 -16z m99 -22 c0 -25 -4 -45 -9 -45 -5 0 -11 20 -13 45 -2 31
1 45 9 45 9 0 13 -16 13 -45z m128 7 c6 -58 -38 -85 -60 -37 -16 36 4 78 35
73 17 -2 23 -11 25 -36z m223 15 c7 -15 7 -31 0 -50 -18 -47 -61 -28 -61 28 0
18 3 35 7 38 14 15 44 6 54 -16z m115 -1 c8 -33 2 -57 -18 -69 -23 -15 -48 8
-48 42 0 51 54 73 66 27z m93 -23 c-1 -46 -2 -47 -8 -13 -4 20 -11 41 -15 48
-4 7 -1 12 8 12 13 0 16 -11 15 -47z m129 18 c7 -43 -7 -73 -31 -69 -17 2 -23
11 -25 36 -5 47 4 64 30 60 15 -2 24 -11 26 -27z m100 -11 c2 -18 -1 -37 -6
-42 -6 -6 -11 7 -13 36 -5 53 14 59 19 6z m128 16 c8 -33 2 -57 -18 -69 -23
-15 -48 8 -48 42 0 51 54 73 66 27z m112 -14 c6 -58 -38 -85 -60 -37 -16 36 4
78 35 73 17 -2 23 -11 25 -36z m92 -9 c0 -25 -2 -44 -4 -42 -8 10 -13 89 -5
89 5 0 9 -21 9 -47z m118 7 c2 -18 -1 -37 -6 -42 -6 -6 -11 7 -13 36 -5 53 14
59 19 6z m140 2 c6 -58 -38 -85 -60 -37 -16 36 4 78 35 73 17 -2 23 -11 25
-36z m223 15 c7 -15 7 -31 0 -50 -18 -47 -61 -28 -61 28 0 18 3 35 7 38 14 15
44 6 54 -16z m223 7 c24 -62 -29 -118 -56 -59 -8 19 -8 31 0 50 13 28 47 34
56 9z m111 -34 c0 -41 -2 -45 -25 -45 -21 0 -26 5 -28 33 -5 47 4 64 30 60 20
-3 23 -9 23 -48z m117 25 c8 -19 8 -31 0 -50 -27 -59 -80 -3 -56 59 9 25 43
19 56 -9z m207 -22 c-1 -46 -2 -47 -8 -13 -4 20 -11 41 -15 48 -4 7 -1 12 8
12 13 0 16 -11 15 -47z m126 -3 c0 -41 -2 -45 -25 -45 -21 0 -26 5 -28 33 -5
47 4 64 30 60 20 -3 23 -9 23 -48z m103 10 c2 -18 -1 -37 -6 -42 -6 -6 -11 7
-13 36 -5 53 14 59 19 6z m128 16 c8 -34 2 -57 -19 -70 -15 -9 -21 -7 -33 8
-8 11 -14 29 -14 41 0 46 55 63 66 21z m112 -14 c6 -59 -40 -85 -59 -35 -14
38 3 75 34 71 17 -2 23 -11 25 -36z m90 -9 c-1 -41 -2 -43 -5 -13 -3 19 -9 41
-15 47 -8 10 -6 13 6 13 13 0 16 -10 14 -47z m134 22 c8 -19 8 -31 0 -50 -27
-59 -80 -3 -56 59 9 25 43 19 56 -9z m226 -13 c6 -59 -40 -85 -59 -35 -14 38
3 75 34 71 17 -2 23 -11 25 -36z m111 16 c13 -36 -2 -73 -30 -73 -20 0 -25 6
-27 33 -2 19 -1 40 2 48 9 22 46 17 55 -8z m99 -26 c2 -23 -1 -42 -6 -42 -6 0
-12 20 -14 45 -2 27 1 44 7 42 5 -2 11 -22 13 -45z m240 10 c6 -57 -39 -86
-58 -37 -14 37 4 77 33 73 17 -2 23 -11 25 -36z m94 26 c2 -7 1 -29 -3 -48
l-6 -35 -2 32 c0 17 -4 38 -7 47 -3 9 -2 16 4 16 5 0 12 -6 14 -12z m227 -35
c-1 -27 -3 -39 -6 -28 -2 11 -8 32 -13 48 -7 21 -6 27 6 27 10 0 14 -12 13
-47z m129 6 c5 -59 -49 -83 -60 -26 -7 39 8 69 34 65 18 -2 24 -10 26 -39z
m113 18 c7 -15 7 -31 0 -50 -18 -47 -61 -28 -61 28 0 18 3 35 7 38 14 15 44 6
54 -16z m115 -3 c8 -30 -10 -74 -29 -74 -31 0 -47 43 -31 84 10 27 53 20 60
-10z m202 -21 c-1 -41 -2 -43 -5 -13 -3 19 -9 41 -15 47 -8 10 -6 13 6 13 13
0 16 -10 14 -47z m134 22 c21 -46 -18 -95 -50 -63 -13 13 -17 70 -5 81 15 15
44 5 55 -18z m98 -20 c0 -25 -4 -45 -9 -45 -5 0 -11 20 -13 45 -2 31 1 45 9
45 9 0 13 -16 13 -45z m338 5 c2 -18 -1 -37 -6 -42 -6 -6 -11 7 -13 36 -5 53
14 59 19 6z m128 16 c8 -34 2 -57 -19 -70 -15 -9 -21 -7 -33 8 -8 11 -14 29
-14 41 0 46 55 63 66 21z m-6427 -158 c18 -31 7 -74 -22 -92 -15 -9 -22 -7
-38 13 -23 28 -24 59 -3 89 20 29 44 25 63 -10z m2699 20 c14 -14 16 -48 3
-48 -5 0 -12 6 -15 13 -3 8 -8 7 -16 -6 -12 -19 -30 -14 -30 8 0 14 26 45 39
45 4 0 12 -5 19 -12z m1473 -4 c7 -9 13 -31 13 -49 0 -38 -18 -65 -45 -65 -37
0 -52 68 -23 108 18 26 36 28 55 6z m-5432 -52 l-1 -47 -12 45 c-13 47 -11 64
5 55 5 -4 9 -27 8 -53z m127 29 c16 -32 3 -75 -24 -79 -38 -6 -50 56 -19 96
13 17 29 11 43 -17z m108 13 c20 -19 20 -54 2 -80 -12 -15 -18 -17 -33 -8 -21
13 -29 69 -12 90 15 18 24 18 43 -2z m106 -40 c0 -24 -4 -44 -9 -44 -9 0 -20
88 -12 95 11 12 21 -11 21 -51z m119 42 c17 -21 9 -77 -12 -90 -37 -22 -64 55
-31 88 19 20 28 20 43 2z m119 -17 c18 -31 1 -79 -27 -79 -24 0 -32 12 -33 50
-1 32 18 63 36 57 6 -2 17 -14 24 -28z m220 19 c17 -17 15 -73 -4 -89 -37 -31
-74 49 -39 85 20 19 27 20 43 4z m111 -2 c17 -21 9 -77 -12 -90 -26 -16 -50
18 -42 59 8 42 33 56 54 31z m221 -42 c0 -24 -4 -44 -9 -44 -9 0 -20 88 -12
95 11 12 21 -11 21 -51z m340 47 c17 -12 19 -76 2 -93 -31 -31 -71 52 -41 88
13 16 19 17 39 5z m110 -47 c0 -24 -4 -44 -9 -44 -9 0 -20 88 -12 95 11 12 21
-11 21 -51z m119 42 c17 -21 9 -77 -12 -90 -37 -22 -64 55 -31 88 19 20 28 20
43 2z m109 2 c17 -17 15 -73 -3 -88 -36 -30 -69 32 -40 76 17 27 26 29 43 12z
m112 -45 c0 -17 -4 -35 -10 -38 -6 -4 -10 8 -10 29 0 19 -5 38 -11 42 -8 4 -7
9 2 15 18 11 29 -8 29 -48z m229 43 c17 -21 9 -77 -12 -90 -37 -22 -64 55 -31
88 19 20 28 20 43 2z m99 -44 c-1 -41 -2 -42 -5 -12 -3 19 -9 40 -14 46 -10
12 -1 26 12 18 5 -3 8 -26 7 -52z m130 46 c15 -15 16 -63 2 -89 -12 -21 -40
-25 -58 -7 -13 13 -16 66 -6 92 7 19 45 21 62 4z m107 -4 c35 -36 -2 -116 -39
-85 -19 16 -21 72 -4 89 16 16 23 15 43 -4z m105 -42 c0 -53 -17 -47 -20 8 -3
47 -2 52 10 45 6 -3 10 -27 10 -53z m234 42 c20 -19 20 -54 2 -80 -12 -15 -18
-17 -33 -8 -21 13 -29 69 -12 90 15 18 24 18 43 -2z m114 4 c17 -17 15 -73 -4
-89 -35 -29 -69 34 -44 81 12 23 30 26 48 8z m111 -2 c17 -21 9 -77 -12 -90
-37 -22 -64 55 -31 88 19 20 28 20 43 2z m117 -15 c23 -44 -17 -104 -48 -73
-14 14 -13 69 2 87 16 20 32 15 46 -14z m108 13 c20 -19 20 -54 2 -80 -12 -15
-18 -17 -33 -8 -21 13 -29 69 -12 90 15 18 24 18 43 -2z m106 -40 c0 -24 -4
-44 -9 -44 -9 0 -20 88 -12 95 11 12 21 -11 21 -51z m119 42 c17 -21 9 -77
-12 -90 -26 -16 -50 18 -42 59 8 42 33 56 54 31z m225 -2 c20 -19 20 -54 2
-80 -12 -15 -18 -17 -33 -8 -21 13 -29 69 -12 90 15 18 24 18 43 -2z m116 -42
c0 -53 -17 -47 -20 8 -3 47 -2 52 10 45 6 -3 10 -27 10 -53z m227 50 c39 -25
15 -120 -24 -96 -21 13 -29 69 -12 90 13 16 19 17 36 6z m223 -50 c-1 -51 -16
-41 -20 13 -3 42 -1 47 10 40 6 -3 10 -27 10 -53z m119 44 c7 -8 11 -32 9 -53
-2 -31 -7 -39 -25 -41 -39 -6 -51 55 -20 96 12 16 22 15 36 -2z m111 -36 c0
-21 -4 -42 -10 -45 -6 -4 -10 10 -10 34 0 26 -5 41 -12 41 -9 0 -8 3 2 9 22
14 30 4 30 -39z m229 36 c17 -21 9 -77 -12 -90 -37 -22 -64 55 -31 88 19 20
28 20 43 2z m225 -2 c20 -19 20 -54 2 -80 -12 -15 -18 -17 -33 -8 -21 13 -29
69 -12 90 15 18 24 18 43 -2z m114 4 c17 -17 15 -73 -4 -89 -37 -31 -74 49
-39 85 20 19 27 20 43 4z m111 -2 c17 -21 9 -77 -12 -90 -26 -16 -50 18 -42
59 8 42 33 56 54 31z m107 6 c33 -21 21 -102 -15 -102 -11 0 -23 5 -26 10 -11
18 -8 69 5 85 14 17 20 18 36 7z m333 -50 c-1 -46 -1 -46 -9 -12 -4 19 -8 40
-10 45 -4 18 0 26 10 20 6 -3 9 -27 9 -53z m117 50 c36 -23 20 -106 -19 -100
-18 2 -23 10 -25 41 -4 50 16 78 44 59z m114 -48 c0 -24 -4 -44 -9 -44 -9 0
-20 88 -12 95 11 12 21 -11 21 -51z m219 -2 c-1 -46 -1 -46 -9 -12 -4 19 -8
40 -10 45 -4 18 0 26 10 20 6 -3 9 -27 9 -53z m121 49 c17 -12 19 -76 2 -93
-31 -31 -71 52 -41 88 13 16 19 17 39 5z m220 -49 c0 -53 -17 -47 -20 8 -3 47
-2 52 10 45 6 -3 10 -27 10 -53z m109 0 c-1 -46 -1 -46 -9 -12 -4 19 -8 40
-10 45 -4 18 0 26 10 20 6 -3 9 -27 9 -53z m118 50 c39 -25 15 -120 -24 -96
-21 13 -29 69 -12 90 13 16 19 17 36 6z m113 -48 c0 -24 -4 -44 -9 -44 -9 0
-20 88 -12 95 11 12 21 -11 21 -51z m236 27 c17 -34 3 -76 -26 -76 -33 0 -48
46 -25 81 19 29 35 27 51 -5z m104 -21 c0 -21 -4 -42 -10 -45 -6 -4 -10 10
-10 34 0 26 -5 41 -12 41 -9 0 -8 3 2 9 22 14 30 4 30 -39z m120 30 c25 -47
-9 -110 -44 -81 -18 15 -21 53 -6 82 14 25 36 24 50 -1z m226 -9 c16 -32 3
-75 -24 -79 -38 -6 -50 56 -19 96 13 17 29 11 43 -17z m108 13 c20 -19 20 -54
2 -80 -12 -15 -18 -17 -33 -8 -21 13 -29 69 -12 90 15 18 24 18 43 -2z m114 4
c17 -17 15 -73 -4 -89 -35 -29 -69 34 -44 81 12 23 30 26 48 8z m-4080 -45
c-1 -41 -2 -43 -5 -13 -3 19 -9 41 -15 47 -8 10 -6 13 6 13 13 0 16 -10 14
-47z m1250 0 c-1 -41 -2 -43 -5 -13 -3 19 -9 41 -15 47 -8 10 -6 13 6 13 13 0
16 -10 14 -47z m-3600 -162 c3 -57 -11 -88 -28 -61 -5 8 -10 29 -10 47 0 17
-6 33 -12 36 -19 6 11 39 31 35 12 -2 17 -17 19 -57z m1132 40 c21 -40 5 -111
-25 -111 -38 0 -63 88 -33 118 18 18 46 14 58 -7z m3051 3 c28 -33 9 -114 -27
-114 -37 0 -57 66 -34 111 13 23 43 25 61 3z m-5431 -46 c0 -58 -17 -56 -20 2
-3 46 -2 50 10 50 6 0 10 -23 10 -52z m130 26 c18 -47 -7 -92 -44 -78 -36 14
-24 104 14 104 13 0 24 -10 30 -26z m111 2 c14 -29 4 -75 -16 -83 -23 -8 -45
16 -45 51 0 55 41 76 61 32z m99 -26 c0 -27 -4 -50 -10 -50 -5 0 -10 15 -10
34 0 19 -3 41 -6 50 -4 11 -1 16 10 16 13 0 16 -11 16 -50z m118 38 c17 -17
15 -73 -3 -88 -34 -28 -68 27 -46 76 12 26 30 31 49 12z m122 -14 c18 -47 -7
-92 -44 -78 -36 14 -24 104 14 104 13 0 24 -10 30 -26z m219 12 c17 -20 10
-77 -11 -89 -24 -16 -48 8 -48 47 0 49 34 73 59 42z m115 -2 c18 -48 -5 -103
-39 -91 -20 8 -30 54 -16 83 12 27 46 32 55 8z m224 4 c16 -16 15 -60 -2 -84
-20 -27 -50 -7 -54 35 -5 50 27 78 56 49z m342 -9 c14 -26 4 -75 -17 -84 -24
-9 -46 19 -45 56 1 48 42 67 62 28z m108 9 c16 -16 15 -60 -2 -84 -20 -27 -50
-7 -54 35 -5 50 27 78 56 49z m102 -40 c0 -58 -17 -56 -20 2 -3 46 -2 50 10
50 6 0 10 -23 10 -52z m128 6 c5 -68 -49 -89 -63 -25 -8 40 10 73 38 69 18 -2
23 -11 25 -44z m100 1 c2 -21 -1 -42 -7 -48 -8 -8 -11 0 -11 25 0 20 -5 40
-10 43 -13 8 -2 27 13 22 7 -2 13 -21 15 -42z m230 33 c17 -17 15 -73 -3 -88
-34 -28 -68 27 -46 76 12 26 30 31 49 12z m101 -40 c-1 -49 -2 -51 -9 -18 -4
19 -8 40 -10 45 -4 16 -1 25 10 25 6 0 9 -23 9 -52z m240 38 c17 -20 10 -77
-11 -89 -24 -16 -48 8 -48 47 0 49 34 73 59 42z m101 -38 c0 -58 -17 -56 -20
2 -3 46 -2 50 10 50 6 0 10 -23 10 -52z m241 28 c14 -29 4 -75 -16 -83 -23 -8
-45 16 -45 51 0 55 41 76 61 32z m99 -26 c0 -27 -4 -50 -10 -50 -5 0 -10 15
-10 34 0 19 -3 41 -6 50 -4 11 -1 16 10 16 13 0 16 -11 16 -50z m118 38 c17
-17 15 -73 -3 -88 -34 -28 -68 27 -46 76 12 26 30 31 49 12z m122 -14 c18 -47
-7 -92 -44 -78 -36 14 -24 104 14 104 13 0 24 -10 30 -26z m98 -27 c2 -28 -1
-47 -7 -47 -6 0 -11 18 -11 40 0 22 -5 40 -11 40 -5 0 -7 5 -4 11 14 22 30 0
33 -44z m121 39 c17 -20 10 -77 -11 -89 -24 -16 -48 8 -48 47 0 49 34 73 59
42z m101 -38 c-1 -56 -16 -50 -20 7 -3 40 -2 45 10 45 6 0 10 -24 10 -52z
m130 26 c18 -47 -7 -92 -44 -78 -36 14 -24 104 14 104 13 0 24 -10 30 -26z
m111 2 c14 -29 4 -75 -16 -83 -23 -8 -45 16 -45 51 0 55 41 76 61 32z m117 12
c17 -17 15 -73 -3 -88 -34 -28 -68 27 -46 76 12 26 30 31 49 12z m233 -12 c14
-29 4 -75 -16 -83 -23 -8 -45 16 -45 51 0 55 41 76 61 32z m217 12 c17 -17 15
-73 -3 -88 -34 -28 -68 27 -46 76 12 26 30 31 49 12z m123 -14 c11 -29 5 -56
-15 -73 -33 -27 -65 24 -46 73 13 35 47 35 61 0z m97 -27 c2 -28 -1 -47 -7
-47 -6 0 -11 18 -11 40 0 22 -5 40 -11 40 -5 0 -7 5 -4 11 14 22 30 0 33 -44z
m230 41 c17 -17 15 -73 -3 -88 -34 -28 -68 27 -46 76 12 26 30 31 49 12z m108
-13 c3 -14 3 -37 -2 -52 l-8 -28 -4 35 c-2 19 -8 40 -13 46 -5 6 -6 14 -2 17
13 13 23 7 29 -18z m125 1 c14 -29 4 -75 -16 -83 -23 -8 -45 16 -45 51 0 55
41 76 61 32z m108 10 c17 -20 10 -77 -11 -89 -24 -16 -48 8 -48 47 0 49 34 73
59 42z m100 -38 l-1 -53 -12 45 c-13 47 -12 60 5 60 5 0 9 -24 8 -52z m131 26
c12 -32 3 -71 -18 -79 -25 -9 -55 32 -47 64 12 47 50 55 65 15z m338 -20 c5
-65 -49 -90 -64 -29 -10 39 11 77 39 73 18 -2 23 -10 25 -44z m96 30 c9 -25 7
-72 -4 -79 -6 -4 -10 8 -10 29 0 19 -5 38 -10 41 -11 7 -4 25 10 25 4 0 11 -7
14 -16z m127 -8 c14 -29 4 -75 -16 -83 -23 -8 -45 16 -45 51 0 55 41 76 61 32z
m227 -22 c5 -65 -49 -90 -64 -29 -10 39 11 77 39 73 18 -2 23 -10 25 -44z
m100 1 c2 -21 -1 -42 -7 -48 -8 -8 -11 0 -11 25 0 20 -5 40 -10 43 -13 8 -2
27 13 22 7 -2 13 -21 15 -42z m222 -7 c0 -58 -17 -56 -20 2 -3 46 -2 50 10 50
6 0 10 -23 10 -52z m125 42 c12 -20 8 -71 -7 -86 -32 -33 -68 19 -48 70 10 26
43 36 55 16z m116 -14 c14 -29 4 -75 -16 -83 -23 -8 -45 16 -45 51 0 55 41 76
61 32z m99 -26 c0 -27 -4 -50 -10 -50 -5 0 -10 15 -10 34 0 19 -3 41 -6 50 -4
11 -1 16 10 16 13 0 16 -11 16 -50z m240 24 c18 -47 -7 -92 -44 -78 -36 14
-24 104 14 104 13 0 24 -10 30 -26z m98 -19 c2 -21 -1 -42 -7 -48 -8 -8 -11 1
-11 31 0 23 -5 42 -11 42 -5 0 -7 5 -4 11 13 20 30 2 33 -36z m121 31 c17 -20
10 -77 -11 -89 -24 -16 -48 8 -48 47 0 49 34 73 59 42z m209 -38 c-1 -41 -2
-45 -5 -18 -3 19 -9 40 -14 46 -5 6 -6 14 -2 17 16 17 23 3 21 -45z m133 28
c14 -29 4 -75 -16 -83 -23 -8 -45 16 -45 51 0 55 41 76 61 32z m108 10 c17
-20 10 -77 -11 -89 -24 -16 -48 8 -48 47 0 49 34 73 59 42z m-6431 -209 c3
-52 1 -58 -15 -55 -13 2 -19 14 -21 41 -2 20 -7 37 -13 37 -14 0 -11 28 4 33
32 14 42 2 45 -56z m1130 51 c27 -27 6 -118 -28 -118 -20 0 -40 34 -40 69 0
40 14 61 40 61 9 0 21 -5 28 -12z m3050 -51 c3 -52 1 -57 -18 -57 -17 0 -20 6
-20 40 0 22 -4 40 -10 40 -14 0 -12 27 3 33 32 14 42 2 45 -56z m-5428 1 c0
-60 -15 -54 -23 10 -4 32 -2 42 9 42 10 0 14 -14 14 -52z m131 25 c12 -32 -6
-78 -31 -78 -8 0 -20 11 -28 25 -18 33 -2 80 28 80 13 0 24 -10 31 -27z m99
-23 c0 -27 -4 -50 -10 -50 -5 0 -10 18 -10 40 0 22 -5 40 -11 40 -5 0 -7 5 -4
10 3 6 13 10 21 10 10 0 14 -13 14 -50z m126 26 c14 -56 -17 -104 -50 -77 -19
16 -21 72 -4 89 20 20 47 14 54 -12z m94 -28 c0 -60 -15 -54 -23 10 -4 32 -2
42 9 42 10 0 14 -14 14 -52z m132 26 c10 -21 9 -31 -3 -52 -19 -34 -39 -34
-57 -2 -10 19 -11 32 -3 53 14 35 47 36 63 1z m224 2 c14 -56 -17 -104 -50
-77 -19 16 -21 72 -4 89 20 20 47 14 54 -12z m94 -28 c0 -60 -15 -54 -23 10
-4 32 -2 42 9 42 10 0 14 -14 14 -52z m230 2 c0 -27 -4 -50 -10 -50 -5 0 -10
18 -10 40 0 22 -5 40 -11 40 -5 0 -7 5 -4 10 3 6 13 10 21 10 10 0 14 -13 14
-50z m350 29 c22 -39 -10 -103 -42 -83 -18 11 -28 53 -18 79 12 31 45 33 60 4z
m100 -29 c0 -27 -4 -50 -10 -50 -5 0 -10 18 -10 40 0 22 -5 40 -11 40 -5 0 -7
5 -4 10 3 6 13 10 21 10 10 0 14 -13 14 -50z m124 34 c15 -39 0 -94 -25 -94
-32 0 -52 73 -27 98 17 17 45 15 52 -4z m116 -9 c10 -26 0 -68 -18 -79 -17
-11 -42 5 -48 31 -15 58 45 102 66 48z m98 -20 c2 -21 -1 -42 -7 -48 -8 -8
-11 0 -11 25 0 20 -5 40 -10 43 -13 8 -2 27 13 22 7 -2 13 -21 15 -42z m240 2
c3 -36 -10 -67 -29 -67 -17 0 -39 33 -39 59 0 33 18 53 45 49 15 -2 21 -12 23
-41z m95 29 c3 -8 4 -22 2 -32 -2 -11 -4 -28 -5 -39 -2 -12 -5 -5 -10 15 -4
19 -11 43 -15 53 -5 12 -3 17 8 17 8 0 17 -6 20 -14z m227 -36 c0 -27 -4 -50
-10 -50 -5 0 -10 18 -10 40 0 22 -5 40 -11 40 -5 0 -7 5 -4 10 3 6 13 10 21
10 10 0 14 -13 14 -50z m128 7 c3 -36 -10 -67 -29 -67 -17 0 -39 33 -39 59 0
33 18 53 45 49 15 -2 21 -12 23 -41z m223 19 c22 -48 -13 -103 -47 -75 -14 12
-19 80 -7 92 14 15 44 6 54 -17z m99 -26 c0 -27 -4 -50 -10 -50 -5 0 -10 15
-10 34 0 19 -3 41 -6 50 -4 11 -1 16 10 16 13 0 16 -11 16 -50z m128 4 c3 -45
-14 -69 -42 -58 -41 16 -26 108 17 102 18 -2 23 -10 25 -44z m98 21 c3 -14 3
-37 -2 -52 -8 -28 -8 -28 -12 7 -2 19 -8 39 -13 45 -13 14 -11 25 6 25 8 0 17
-11 21 -25z m122 13 c25 -25 5 -98 -27 -98 -25 0 -45 83 -24 103 10 11 38 8
51 -5z m102 -38 c0 -27 -4 -50 -10 -50 -5 0 -10 15 -10 34 0 19 -3 41 -6 50
-4 11 -1 16 10 16 13 0 16 -11 16 -50z m110 -2 c0 -60 -15 -54 -23 10 -4 32
-2 42 9 42 10 0 14 -14 14 -52z m130 31 c14 -25 4 -75 -17 -83 -33 -13 -60 34
-44 78 13 32 46 35 61 5z m108 9 c25 -25 5 -98 -27 -98 -25 0 -45 83 -24 103
10 11 38 8 51 -5z m112 -40 c0 -60 -15 -54 -23 10 -4 32 -2 42 9 42 10 0 14
-14 14 -52z m241 28 c22 -48 -13 -103 -47 -75 -14 12 -19 80 -7 92 14 15 44 6
54 -17z m227 -19 c3 -36 -10 -67 -29 -67 -17 0 -39 33 -39 59 0 33 18 53 45
49 15 -2 21 -12 23 -41z m113 16 c12 -32 -6 -78 -31 -78 -8 0 -20 11 -28 25
-18 33 -2 80 28 80 13 0 24 -10 31 -27z m99 -23 c0 -27 -4 -50 -10 -50 -5 0
-10 18 -10 40 0 22 -5 40 -11 40 -5 0 -7 5 -4 10 3 6 13 10 21 10 10 0 14 -13
14 -50z m220 -2 c0 -60 -15 -54 -23 10 -4 32 -2 42 9 42 10 0 14 -14 14 -52z
m132 26 c10 -21 9 -31 -3 -52 -19 -34 -39 -34 -57 -2 -10 19 -11 32 -3 53 14
35 47 36 63 1z m98 -24 c0 -27 -4 -50 -10 -50 -5 0 -10 18 -10 40 0 22 -5 40
-11 40 -5 0 -7 5 -4 10 3 6 13 10 21 10 10 0 14 -13 14 -50z m126 26 c14 -56
-17 -104 -50 -77 -19 16 -21 72 -4 89 20 20 47 14 54 -12z m94 -28 c0 -60 -15
-54 -23 10 -4 32 -2 42 9 42 10 0 14 -14 14 -52z m132 26 c10 -21 9 -31 -3
-52 -19 -34 -39 -34 -57 -2 -10 19 -11 32 -3 53 14 35 47 36 63 1z m318 -26
c-1 -58 -13 -50 -23 15 -4 28 -2 37 9 37 10 0 14 -13 14 -52z m118 7 c2 -21
-1 -42 -7 -48 -8 -8 -11 0 -11 25 0 20 -5 40 -10 43 -13 8 -2 27 13 22 7 -2
13 -21 15 -42z m120 33 c25 -25 5 -98 -27 -98 -25 0 -40 55 -25 94 7 19 35 21
52 4z m211 -40 c-1 -49 -2 -51 -9 -18 -4 19 -11 43 -15 53 -5 12 -3 17 9 17
13 0 16 -10 15 -52z m132 28 c22 -48 -13 -103 -47 -75 -14 12 -19 80 -7 92 14
15 44 6 54 -17z m209 -28 c0 -60 -15 -54 -23 10 -4 32 -2 42 9 42 10 0 14 -14
14 -52z m130 27 c10 -26 0 -68 -18 -79 -32 -20 -64 44 -42 83 15 29 48 27 60
-4z m111 1 c22 -48 -13 -103 -47 -75 -14 12 -19 80 -7 92 14 15 44 6 54 -17z
m99 -26 c0 -27 -4 -50 -10 -50 -5 0 -10 18 -10 40 0 22 -5 40 -11 40 -5 0 -7
5 -4 10 3 6 13 10 21 10 10 0 14 -13 14 -50z m222 33 c2 -10 1 -34 -2 -53 l-6
-35 -5 35 c-3 19 -9 43 -14 53 -5 12 -3 17 8 17 8 0 16 -8 19 -17z m129 -7
c22 -48 -13 -103 -47 -75 -14 12 -19 80 -7 92 14 15 44 6 54 -17z m99 -26 c0
-27 -4 -50 -10 -50 -5 0 -10 15 -10 34 0 19 -3 41 -6 50 -4 11 -1 16 10 16 13
0 16 -11 16 -50z m226 25 c3 -14 3 -37 -2 -52 -8 -28 -8 -28 -12 7 -2 19 -8
39 -13 45 -13 14 -11 25 6 25 8 0 17 -11 21 -25z m122 13 c25 -25 5 -98 -27
-98 -25 0 -45 83 -24 103 10 11 38 8 51 -5z m102 -38 c0 -27 -4 -50 -10 -50
-5 0 -10 15 -10 34 0 19 -3 41 -6 50 -4 11 -1 16 10 16 13 0 16 -11 16 -50z
m-6406 -148 c12 -44 -5 -82 -38 -82 -27 0 -46 25 -46 60 0 66 66 84 84 22z
m1115 24 c17 -21 10 -87 -11 -100 -28 -17 -52 5 -56 48 -4 41 11 66 38 66 10
0 23 -6 29 -14z m3059 -32 c2 -28 -2 -47 -13 -58 -35 -34 -74 27 -53 84 6 16
15 21 35 18 25 -3 28 -8 31 -44z m-5438 -16 c0 -60 -15 -54 -23 10 -4 32 -2
42 9 42 10 0 14 -14 14 -52z m132 27 c15 -33 -3 -75 -32 -75 -12 0 -25 10 -32
25 -15 33 3 75 32 75 12 0 25 -10 32 -25z m112 9 c19 -50 -9 -103 -45 -84 -14
8 -19 21 -19 49 0 21 3 41 7 44 12 13 51 7 57 -9z m114 -13 c2 -12 1 -34 -3
-48 -4 -19 -11 -24 -33 -21 -29 3 -39 29 -27 75 8 34 58 30 63 -6z m107 -21
c0 -40 -3 -45 -24 -48 -27 -4 -41 12 -41 49 0 31 18 51 45 47 17 -3 20 -11 20
-48z m103 6 c2 -21 -1 -43 -7 -49 -8 -8 -11 0 -11 25 0 20 -4 40 -10 43 -17
10 -11 27 8 23 12 -2 18 -15 20 -42z m240 -3 c2 -33 -1 -44 -17 -52 -36 -20
-64 33 -45 84 4 10 16 15 33 13 23 -3 26 -8 29 -45z m107 -3 c0 -40 -3 -45
-24 -48 -27 -4 -41 12 -41 49 0 31 18 51 45 47 17 -3 20 -11 20 -48z m229 34
c19 -50 -9 -103 -45 -84 -14 8 -19 21 -19 49 0 21 3 41 7 44 12 13 51 7 57 -9z
m324 -28 c2 -21 -1 -43 -7 -49 -8 -8 -11 -2 -11 22 0 18 -5 41 -11 53 -9 17
-8 19 8 16 13 -2 19 -14 21 -42z m112 -6 c0 -27 -4 -50 -10 -50 -5 0 -10 15
-10 34 0 19 -3 41 -6 50 -4 11 -1 16 10 16 13 0 16 -11 16 -50z m125 0 c0 -42
-2 -45 -27 -48 -22 -3 -29 2 -34 22 -3 14 -3 38 0 52 5 20 12 25 34 22 25 -3
27 -6 27 -48z m94 -2 c0 -55 -9 -47 -22 20 -5 24 -3 32 8 32 11 0 15 -13 14
-52z m129 40 c17 -17 15 -64 -3 -82 -32 -32 -74 20 -55 69 10 27 38 33 58 13z
m227 -38 c0 -42 -2 -45 -27 -48 -22 -3 -29 2 -34 22 -3 14 -3 38 0 52 5 20 12
25 34 22 25 -3 27 -6 27 -48z m103 21 c2 -12 0 -35 -4 -50 -7 -26 -7 -26 -14
9 -4 19 -11 43 -15 54 -6 14 -4 17 11 14 11 -2 20 -13 22 -27z m236 13 c19
-50 -9 -103 -45 -84 -19 11 -26 51 -13 84 8 21 50 21 58 0z m111 -34 c0 -42
-2 -45 -27 -48 -22 -3 -29 2 -34 22 -3 14 -3 38 0 52 5 20 12 25 34 22 25 -3
27 -6 27 -48z m215 0 c0 -27 -4 -50 -10 -50 -5 0 -10 17 -10 38 0 21 -5 43
-12 50 -9 9 -7 12 10 12 20 0 22 -5 22 -50z m124 34 c19 -50 -9 -103 -45 -84
-19 11 -26 51 -13 84 8 21 50 21 58 0z m111 -34 c0 -40 -3 -45 -24 -48 -27 -4
-41 12 -41 49 0 31 18 51 45 47 17 -3 20 -11 20 -48z m117 25 c15 -33 -3 -75
-32 -75 -29 0 -47 42 -32 75 7 15 20 25 32 25 12 0 25 -10 32 -25z m98 -25 c0
-27 -4 -50 -10 -50 -5 0 -10 17 -10 38 0 21 -5 43 -12 50 -9 9 -7 12 10 12 20
0 22 -5 22 -50z m128 5 c3 -28 -1 -43 -14 -52 -25 -18 -54 1 -54 37 0 47 10
61 39 58 22 -3 26 -8 29 -43z m110 -2 c2 -33 -1 -44 -17 -52 -26 -14 -51 10
-51 48 0 33 18 53 45 49 16 -2 21 -12 23 -45z m100 3 c2 -21 -1 -43 -7 -49 -8
-8 -11 -2 -11 22 0 18 -5 41 -11 53 -9 17 -8 19 8 16 13 -2 19 -14 21 -42z
m112 -6 c0 -27 -4 -50 -10 -50 -5 0 -10 15 -10 34 0 19 -3 41 -6 50 -4 11 -1
16 10 16 13 0 16 -11 16 -50z m120 -2 c0 -60 -15 -54 -23 10 -4 32 -2 42 9 42
10 0 14 -14 14 -52z m230 2 c0 -27 -4 -50 -10 -50 -5 0 -10 17 -10 38 0 21 -5
43 -12 50 -9 9 -7 12 10 12 20 0 22 -5 22 -50z m220 -2 c0 -60 -15 -54 -23 10
-4 32 -2 42 9 42 10 0 14 -14 14 -52z m132 27 c15 -33 -3 -75 -32 -75 -29 0
-47 42 -32 75 7 15 20 25 32 25 12 0 25 -10 32 -25z m98 -25 c0 -27 -4 -50
-10 -50 -5 0 -10 17 -10 38 0 21 -5 43 -12 50 -9 9 -7 12 10 12 20 0 22 -5 22
-50z m235 0 c0 -40 -3 -45 -24 -48 -27 -4 -41 12 -41 49 0 31 18 51 45 47 17
-3 20 -11 20 -48z m117 25 c15 -33 -3 -75 -32 -75 -29 0 -47 42 -32 75 7 15
20 25 32 25 12 0 25 -10 32 -25z m114 0 c3 -14 3 -37 0 -51 -5 -20 -12 -25
-34 -22 -23 2 -28 8 -30 36 -5 47 3 62 32 62 19 0 27 -7 32 -25z m94 -25 c0
-27 -4 -50 -10 -50 -5 0 -10 15 -10 34 0 19 -3 41 -6 50 -4 11 -1 16 10 16 13
0 16 -11 16 -50z m125 0 c0 -40 -3 -45 -24 -48 -27 -4 -41 12 -41 49 0 31 18
51 45 47 17 -3 20 -11 20 -48z m117 25 c15 -33 -3 -75 -32 -75 -12 0 -25 10
-32 25 -15 33 3 75 32 75 12 0 25 -10 32 -25z m338 -5 c9 -34 1 -59 -21 -70
-37 -20 -69 56 -37 88 20 20 51 10 58 -18z m112 5 c8 -19 8 -31 0 -50 -26 -56
-85 -10 -63 48 14 35 47 36 63 2z m98 -25 c0 -27 -4 -50 -10 -50 -5 0 -10 15
-10 34 0 19 -3 41 -6 50 -4 11 -1 16 10 16 13 0 16 -11 16 -50z m219 -2 l0
-53 -14 50 c-8 28 -14 51 -15 53 0 1 7 2 15 2 12 0 15 -12 14 -52z m129 40
c13 -13 16 -47 6 -72 -10 -26 -53 -20 -64 9 -19 51 24 97 58 63z m227 -38 c0
-42 -2 -45 -27 -48 -22 -3 -29 2 -34 22 -3 14 -3 38 0 52 5 20 12 25 34 22 25
-3 27 -6 27 -48z m94 -2 l0 -53 -14 50 c-8 28 -14 51 -15 53 0 1 7 2 15 2 12
0 15 -12 14 -52z m137 27 c3 -14 3 -36 0 -50 -9 -35 -53 -35 -66 0 -14 37 3
75 35 75 18 0 26 -7 31 -25z m94 -25 c0 -27 -4 -50 -10 -50 -5 0 -10 15 -10
34 0 19 -3 41 -6 50 -4 11 -1 16 10 16 13 0 16 -11 16 -50z m242 25 c15 -33
-3 -75 -32 -75 -12 0 -25 10 -32 25 -15 33 3 75 32 75 12 0 25 -10 32 -25z
m112 9 c19 -50 -9 -103 -45 -84 -14 8 -19 21 -19 49 0 21 3 41 7 44 12 13 51
7 57 -9z m110 0 c19 -50 -9 -103 -45 -84 -19 11 -26 51 -13 84 8 21 50 21 58
0z m228 -9 c15 -33 -3 -75 -32 -75 -12 0 -25 10 -32 25 -15 33 3 75 32 75 12
0 25 -10 32 -25z m112 9 c19 -50 -9 -103 -45 -84 -14 8 -19 21 -19 49 0 21 3
41 7 44 12 13 51 7 57 -9z m114 -29 c3 -28 -1 -43 -14 -52 -25 -18 -54 1 -54
37 0 47 10 61 39 58 22 -3 26 -8 29 -43z m-7458 -175 c0 -27 -4 -50 -10 -50
-5 0 -10 17 -10 38 0 21 -5 43 -12 50 -9 9 -7 12 10 12 20 0 22 -5 22 -50z
m338 6 c2 -21 -1 -43 -7 -49 -8 -8 -11 -2 -11 22 0 18 -5 41 -11 53 -9 17 -8
19 8 16 13 -2 19 -14 21 -42z m222 -6 c0 -27 -4 -50 -10 -50 -5 0 -10 17 -10
38 0 21 -5 43 -12 50 -9 9 -7 12 10 12 20 0 22 -5 22 -50z m340 0 c0 -27 -4
-50 -10 -50 -5 0 -10 17 -10 38 0 21 -5 43 -12 50 -9 9 -7 12 10 12 20 0 22
-5 22 -50z m340 6 c0 -25 -4 -48 -10 -51 -6 -4 -10 7 -10 25 0 17 -5 40 -10
51 -9 16 -7 19 10 19 17 0 20 -6 20 -44z m332 32 c2 -7 1 -31 -2 -53 -6 -35
-7 -37 -13 -15 -13 56 -14 80 -2 80 7 0 15 -6 17 -12z m678 -38 c0 -27 -4 -50
-10 -50 -5 0 -10 17 -10 38 0 21 -5 43 -12 50 -9 9 -7 12 10 12 20 0 22 -5 22
-50z m340 0 c0 -27 -4 -50 -10 -50 -5 0 -10 17 -10 38 0 21 -5 43 -12 50 -9 9
-7 12 10 12 20 0 22 -5 22 -50z m220 -2 c0 -60 -15 -54 -23 10 -4 32 -2 42 9
42 10 0 14 -14 14 -52z m340 2 c0 -27 -4 -50 -10 -50 -5 0 -10 17 -10 38 0 21
-5 43 -12 50 -9 9 -7 12 10 12 20 0 22 -5 22 -50z m340 0 c0 -27 -4 -50 -10
-50 -5 0 -10 17 -10 38 0 21 -5 43 -12 50 -9 9 -7 12 10 12 20 0 22 -5 22 -50z
m350 0 c0 -27 -4 -50 -10 -50 -5 0 -10 17 -10 38 0 21 -5 43 -12 50 -9 9 -7
12 10 12 20 0 22 -5 22 -50z m220 -2 c0 -60 -15 -54 -23 10 -4 32 -2 42 9 42
10 0 14 -14 14 -52z m450 0 c0 -60 -15 -54 -23 10 -4 32 -2 42 9 42 10 0 14
-14 14 -52z m340 2 c0 -27 -4 -50 -10 -50 -5 0 -10 17 -10 38 0 21 -5 43 -12
50 -9 9 -7 12 10 12 20 0 22 -5 22 -50z m230 6 c0 -25 -4 -48 -10 -51 -6 -4
-10 7 -10 25 0 17 -5 40 -10 51 -9 16 -7 19 10 19 17 0 20 -6 20 -44z m330 -8
c0 -61 -16 -54 -22 10 -2 29 0 42 9 42 9 0 13 -16 13 -52z m908 22 c2 -14 -1
-36 -5 -48 -8 -20 -10 -16 -19 28 -9 44 -9 50 5 48 9 -2 17 -15 19 -28z m450
-14 c2 -21 -1 -43 -7 -49 -8 -8 -11 -3 -11 15 0 15 -5 39 -10 53 -9 23 -8 26
7 23 13 -2 19 -14 21 -42z m562 -6 c0 -27 -4 -50 -10 -50 -5 0 -10 17 -10 38
0 21 -5 43 -12 50 -9 9 -7 12 10 12 20 0 22 -5 22 -50z"/>
<path d="M1455 4442 c-7 -23 4 -54 16 -46 12 7 12 51 0 59 -5 3 -12 -3 -16
-13z"/>
<path d="M775 3440 c-7 -23 2 -60 15 -60 5 0 12 9 15 20 7 23 -2 60 -15 60 -5
0 -12 -9 -15 -20z"/>
<path d="M1904 3446 c-8 -22 -1 -59 14 -64 8 -2 12 8 12 32 0 37 -16 57 -26
32z"/>
<path d="M1905 3277 c-9 -22 -2 -62 10 -60 6 1 11 14 13 29 4 32 -14 56 -23
31z"/>
<path d="M1905 3100 c-8 -25 3 -62 16 -55 5 4 9 19 9 35 0 35 -16 48 -25 20z"/>
<path d="M4737 3114 c-10 -11 -8 -62 3 -69 13 -8 24 40 13 60 -5 8 -12 12 -16
9z"/>
<path d="M6427 3114 c-10 -11 -8 -64 2 -64 14 0 23 37 14 55 -5 9 -12 12 -16
9z"/>
<path d="M780 2920 c0 -16 5 -30 10 -30 6 0 10 14 10 30 0 17 -4 30 -10 30 -5
0 -10 -13 -10 -30z"/>
<path d="M1905 2939 c-10 -15 4 -61 15 -54 13 8 13 65 1 65 -6 0 -13 -5 -16
-11z"/>
<path d="M4730 2921 c0 -17 4 -33 10 -36 11 -7 25 39 15 54 -12 21 -25 11 -25
-18z"/>
<path d="M6420 2921 c0 -17 5 -33 10 -36 6 -4 10 8 10 29 0 20 -4 36 -10 36
-5 0 -10 -13 -10 -29z"/>
<path d="M1904 2766 c-6 -26 1 -46 17 -46 12 0 12 57 -1 65 -5 3 -12 -5 -16
-19z"/>
<path d="M6427 2783 c-11 -10 -8 -63 3 -63 6 0 10 16 10 35 0 36 -2 40 -13 28z"/>
<path d="M780 2580 c0 -16 5 -30 10 -30 6 0 10 14 10 30 0 17 -4 30 -10 30 -5
0 -10 -13 -10 -30z"/>
<path d="M4737 2614 c-10 -10 -9 -52 2 -58 5 -3 11 2 13 12 6 22 -5 56 -15 46z"/>
<path d="M100 2415 c0 -25 4 -35 13 -32 6 2 12 16 12 32 0 16 -6 30 -12 33 -9
2 -13 -8 -13 -33z"/>
<path d="M787 2443 c-11 -10 -8 -63 3 -63 6 0 10 16 10 35 0 36 -2 40 -13 28z"/>
<path d="M4737 2443 c-11 -10 -8 -51 3 -58 6 -4 10 8 10 29 0 37 -2 41 -13 29z"/>
<path d="M780 2250 c0 -16 5 -30 10 -30 6 0 10 14 10 30 0 17 -4 30 -10 30 -5
0 -10 -13 -10 -30z"/>
<path d="M3260 2245 c0 -22 4 -34 10 -30 6 3 10 17 10 30 0 13 -4 27 -10 30
-6 4 -10 -8 -10 -30z"/>
<path d="M6427 2273 c-11 -10 -8 -51 3 -58 6 -4 10 8 10 29 0 37 -2 41 -13 29z"/>
<path d="M102 2249 c2 -19 8 -33 13 -31 15 3 12 55 -3 60 -10 3 -13 -5 -10
-29z"/>
<path d="M107 2104 c-10 -11 -8 -52 3 -59 13 -8 25 44 13 56 -5 5 -12 6 -16 3z"/>
<path d="M780 2080 c0 -16 5 -30 10 -30 6 0 10 14 10 30 0 17 -4 30 -10 30 -5
0 -10 -13 -10 -30z"/>
<path d="M3260 2080 c0 -18 4 -29 10 -25 6 3 10 15 10 25 0 10 -4 22 -10 25
-6 4 -10 -7 -10 -25z"/>
<path d="M105 1927 c-5 -17 -3 -33 3 -39 16 -16 27 18 14 45 -10 22 -10 21
-17 -6z"/>
<path d="M780 1910 c0 -16 5 -30 10 -30 6 0 10 14 10 30 0 17 -4 30 -10 30 -5
0 -10 -13 -10 -30z"/>
<path d="M3260 1910 c0 -18 4 -29 10 -25 6 3 10 15 10 25 0 10 -4 22 -10 25
-6 4 -10 -7 -10 -25z"/>
<path d="M6425 1928 c-4 -10 -4 -26 0 -35 8 -17 8 -17 12 0 3 9 3 25 0 35 -4
16 -4 16 -12 0z"/>
<path d="M105 1757 c-9 -34 10 -60 20 -28 3 11 2 28 -4 38 -8 16 -10 14 -16
-10z"/>
<path d="M1461 1740 c0 -29 1 -32 10 -17 7 11 7 23 0 35 -9 14 -10 11 -10 -18z"/>
<path d="M3260 1740 c0 -18 4 -29 10 -25 6 3 10 15 10 25 0 10 -4 22 -10 25
-6 4 -10 -7 -10 -25z"/>
<path d="M4170 1740 c0 -16 5 -30 10 -30 6 0 10 14 10 30 0 17 -4 30 -10 30
-5 0 -10 -13 -10 -30z"/>
<path d="M6420 1746 c0 -14 5 -28 10 -31 6 -4 10 7 10 24 0 17 -4 31 -10 31
-5 0 -10 -11 -10 -24z"/>
<path d="M1460 1573 c0 -18 2 -33 4 -33 9 0 13 39 5 51 -6 10 -9 4 -9 -18z"/>
<path d="M7660 1575 c0 -14 5 -25 10 -25 6 0 10 11 10 25 0 14 -4 25 -10 25
-5 0 -10 -11 -10 -25z"/>
<path d="M105 1587 c-9 -34 10 -60 20 -28 3 11 2 28 -4 38 -8 16 -10 14 -16
-10z"/>
<path d="M4170 1570 c0 -16 5 -30 10 -30 6 0 10 14 10 30 0 17 -4 30 -10 30
-5 0 -10 -13 -10 -30z"/>
<path d="M1462 1410 c0 -19 2 -27 5 -17 2 9 2 25 0 35 -3 9 -5 1 -5 -18z"/>
<path d="M4170 1410 c0 -16 5 -30 10 -30 6 0 10 14 10 30 0 17 -4 30 -10 30
-5 0 -10 -13 -10 -30z"/>
<path d="M7660 1405 c0 -14 5 -25 10 -25 6 0 10 11 10 25 0 14 -4 25 -10 25
-5 0 -10 -11 -10 -25z"/>
<path d="M4170 1241 c0 -17 5 -31 10 -31 6 0 10 11 10 24 0 14 -4 28 -10 31
-6 4 -10 -7 -10 -24z"/>
<path d="M7660 1240 c0 -11 5 -20 10 -20 6 0 10 9 10 20 0 11 -4 20 -10 20 -5
0 -10 -9 -10 -20z"/>
<path d="M1462 1070 c0 -19 2 -27 5 -17 2 9 2 25 0 35 -3 9 -5 1 -5 -18z"/>
<path d="M7660 1070 c0 -11 5 -20 10 -20 6 0 10 9 10 20 0 11 -4 20 -10 20 -5
0 -10 -9 -10 -20z"/>
<path d="M324 1097 c-9 -25 0 -62 16 -62 10 0 15 10 15 34 0 36 -21 54 -31 28z"/>
<path d="M774 1097 c-9 -25 0 -62 16 -62 10 0 15 10 15 34 0 36 -21 54 -31 28z"/>
<path d="M1117 1104 c-11 -11 -8 -62 4 -70 15 -9 30 16 27 45 -3 25 -19 37
-31 25z"/>
<path d="M1335 1090 c-8 -26 3 -62 18 -57 7 2 13 20 15 40 2 28 -1 37 -12 37
-8 0 -18 -9 -21 -20z"/>
<path d="M1786 1094 c-9 -23 4 -64 20 -64 10 0 14 12 14 40 0 41 -21 57 -34
24z"/>
<path d="M2014 1097 c-9 -25 0 -62 16 -62 10 0 15 10 15 34 0 36 -21 54 -31
28z"/>
<path d="M2124 1096 c-9 -23 5 -68 19 -63 16 5 16 69 0 74 -7 3 -16 -2 -19
-11z"/>
<path d="M2464 1097 c-9 -25 0 -62 16 -62 10 0 15 10 15 34 0 36 -21 54 -31
28z"/>
<path d="M2575 1091 c-8 -27 3 -63 18 -58 7 2 12 19 12 37 0 38 -20 52 -30 21z"/>
<path d="M2687 1090 c-7 -28 3 -60 19 -60 10 0 14 13 14 40 0 43 -23 57 -33
20z"/>
<path d="M3025 1091 c-8 -27 3 -63 18 -58 7 2 12 19 12 37 0 38 -20 52 -30 21z"/>
<path d="M3137 1090 c-7 -28 3 -60 19 -60 10 0 14 13 14 40 0 43 -23 57 -33
20z"/>
<path d="M3364 1097 c-9 -25 0 -62 16 -62 10 0 15 10 15 34 0 36 -21 54 -31
28z"/>
<path d="M3588 1088 c-6 -33 1 -58 17 -58 14 0 23 34 17 63 -5 25 -29 21 -34
-5z"/>
<path d="M3704 1096 c-8 -21 -1 -59 13 -63 6 -2 14 5 18 16 12 40 -17 84 -31
47z"/>
<path d="M3814 1097 c-9 -25 0 -62 16 -62 10 0 15 10 15 34 0 36 -21 54 -31
28z"/>
<path d="M4275 1091 c-8 -27 3 -63 18 -58 7 2 12 19 12 37 0 38 -20 52 -30 21z"/>
<path d="M5175 1090 c-8 -26 3 -62 18 -57 7 2 13 20 15 40 2 28 -1 37 -12 37
-8 0 -18 -9 -21 -20z"/>
<path d="M5290 1070 c0 -43 23 -57 33 -20 7 28 -3 60 -19 60 -10 0 -14 -13
-14 -40z"/>
<path d="M5404 1096 c-8 -21 -1 -59 13 -63 6 -2 14 5 18 16 12 40 -17 84 -31
47z"/>
<path d="M5625 1090 c-9 -27 3 -60 21 -60 10 0 14 12 14 40 0 43 -23 57 -35
20z"/>
<path d="M5857 1104 c-11 -11 -8 -62 4 -70 15 -9 30 16 27 45 -3 25 -19 37
-31 25z"/>
<path d="M5964 1097 c-9 -25 0 -62 16 -62 10 0 15 10 15 34 0 36 -21 54 -31
28z"/>
<path d="M6075 1090 c-9 -27 3 -60 21 -60 10 0 14 12 14 40 0 43 -23 57 -35
20z"/>
<path d="M6304 1097 c-9 -25 0 -62 16 -62 10 0 15 10 15 34 0 36 -21 54 -31
28z"/>
<path d="M6976 1094 c-9 -23 4 -64 20 -64 10 0 14 12 14 40 0 41 -21 57 -34
24z"/>
<path d="M7204 1097 c-9 -25 0 -62 16 -62 10 0 15 10 15 34 0 36 -21 54 -31
28z"/>
<path d="M7427 1090 c-7 -28 3 -60 19 -60 10 0 14 13 14 40 0 43 -23 57 -33
20z"/>
<path d="M7877 1090 c-7 -27 3 -60 18 -60 14 0 23 34 17 63 -5 23 -28 22 -35
-3z"/>
<path d="M1462 905 c0 -16 2 -22 5 -12 2 9 2 23 0 30 -3 6 -5 -1 -5 -18z"/>
<path d="M7660 895 c0 -14 5 -25 10 -25 6 0 10 11 10 25 0 14 -4 25 -10 25 -5
0 -10 -11 -10 -25z"/>
<path d="M212 903 c3 -41 23 -55 33 -24 9 28 -3 61 -21 61 -11 0 -14 -9 -12
-37z"/>
<path d="M324 926 c-9 -23 5 -68 19 -63 16 5 16 69 0 74 -7 3 -16 -2 -19 -11z"/>
<path d="M552 903 c2 -21 8 -38 13 -38 6 0 11 17 13 38 3 29 0 37 -13 37 -13
0 -16 -8 -13 -37z"/>
<path d="M774 926 c-9 -23 5 -68 19 -63 16 5 16 69 0 74 -7 3 -16 -2 -19 -11z"/>
<path d="M1117 934 c-11 -11 -8 -62 4 -70 15 -9 30 16 27 45 -3 25 -19 37 -31
25z"/>
<path d="M1336 924 c-8 -22 4 -66 18 -61 18 6 20 77 3 77 -8 0 -18 -7 -21 -16z"/>
<path d="M1787 920 c-7 -27 3 -62 17 -57 18 6 20 77 3 77 -8 0 -17 -9 -20 -20z"/>
<path d="M2017 934 c-11 -11 -8 -62 4 -70 15 -9 30 16 27 45 -3 25 -19 37 -31
25z"/>
<path d="M2352 903 c3 -41 23 -55 33 -24 9 28 -3 61 -21 61 -11 0 -14 -9 -12
-37z"/>
<path d="M2467 934 c-11 -11 -8 -62 4 -70 15 -9 30 16 27 45 -3 25 -19 37 -31
25z"/>
<path d="M2574 926 c-9 -23 5 -68 19 -63 16 5 16 69 0 74 -7 3 -16 -2 -19 -11z"/>
<path d="M2802 903 c3 -41 23 -55 33 -24 9 28 -3 61 -21 61 -11 0 -14 -9 -12
-37z"/>
<path d="M3025 921 c-8 -27 3 -63 18 -58 7 2 12 19 12 37 0 38 -20 52 -30 21z"/>
<path d="M3142 903 c2 -21 8 -38 13 -38 6 0 11 17 13 38 3 29 0 37 -13 37 -13
0 -16 -8 -13 -37z"/>
<path d="M3364 927 c-9 -25 0 -62 16 -62 10 0 15 10 15 34 0 36 -21 54 -31 28z"/>
<path d="M3592 903 c2 -21 8 -38 13 -38 6 0 11 17 13 38 3 29 0 37 -13 37 -13
0 -16 -8 -13 -37z"/>
<path d="M3704 926 c-8 -21 -1 -59 13 -63 6 -2 14 5 18 16 12 40 -17 84 -31
47z"/>
<path d="M4052 903 c4 -43 23 -55 32 -19 8 31 -2 56 -21 56 -10 0 -13 -10 -11
-37z"/>
<path d="M4274 926 c-9 -23 5 -68 19 -63 16 5 16 69 0 74 -7 3 -16 -2 -19 -11z"/>
<path d="M4502 903 c3 -41 23 -55 33 -24 9 28 -3 61 -21 61 -11 0 -14 -9 -12
-37z"/>
<path d="M4614 927 c-9 -25 0 -62 16 -62 10 0 15 10 15 34 0 36 -21 54 -31 28z"/>
<path d="M4725 920 c-8 -26 3 -62 18 -57 7 2 13 20 15 40 2 28 -1 37 -12 37
-8 0 -18 -9 -21 -20z"/>
<path d="M5064 926 c-9 -23 5 -68 19 -63 16 5 16 69 0 74 -7 3 -16 -2 -19 -11z"/>
<path d="M5292 903 c4 -52 28 -56 28 -4 0 30 -4 41 -16 41 -11 0 -14 -9 -12
-37z"/>
<path d="M5402 903 c3 -41 23 -55 33 -24 9 28 -3 61 -21 61 -11 0 -14 -9 -12
-37z"/>
<path d="M5626 924 c-8 -22 4 -66 18 -61 18 6 20 77 3 77 -8 0 -18 -7 -21 -16z"/>
<path d="M5857 934 c-11 -11 -8 -62 4 -70 15 -9 30 16 27 45 -3 25 -19 37 -31
25z"/>
<path d="M5964 926 c-9 -23 5 -68 19 -63 16 5 16 69 0 74 -7 3 -16 -2 -19 -11z"/>
<path d="M6307 934 c-11 -11 -8 -62 4 -70 15 -9 30 16 27 45 -3 25 -19 37 -31
25z"/>
<path d="M6757 934 c-11 -11 -8 -62 4 -70 15 -9 30 16 27 45 -3 25 -19 37 -31
25z"/>
<path d="M6864 926 c-9 -23 5 -68 19 -63 16 5 16 69 0 74 -7 3 -16 -2 -19 -11z"/>
<path d="M6982 903 c2 -21 8 -38 13 -38 6 0 11 17 13 38 3 29 0 37 -13 37 -13
0 -16 -8 -13 -37z"/>
<path d="M7315 921 c-8 -27 3 -63 18 -58 7 2 12 19 12 37 0 38 -20 52 -30 21z"/>
<path d="M7882 903 c2 -21 8 -38 13 -38 6 0 11 17 13 38 3 29 0 37 -13 37 -13
0 -16 -8 -13 -37z"/>
<path d="M1462 735 c0 -16 2 -22 5 -12 2 9 2 23 0 30 -3 6 -5 -1 -5 -18z"/>
<path d="M5642 735 c0 -16 2 -22 5 -12 2 9 2 23 0 30 -3 6 -5 -1 -5 -18z"/>
<path d="M324 755 c-8 -20 4 -65 16 -65 12 0 24 45 16 65 -7 19 -25 19 -32 0z"/>
<path d="M440 760 c-14 -25 2 -76 20 -65 12 8 13 55 1 74 -7 11 -11 9 -21 -9z"/>
<path d="M667 766 c-18 -47 2 -96 22 -57 14 26 14 33 -2 55 -13 18 -14 18 -20
2z"/>
<path d="M774 755 c-8 -20 4 -65 16 -65 12 0 24 45 16 65 -7 19 -25 19 -32 0z"/>
<path d="M1005 768 c-9 -22 -2 -68 10 -71 14 -3 19 63 6 76 -7 7 -12 5 -16 -5z"/>
<path d="M1117 766 c-18 -47 2 -96 22 -57 14 26 14 33 -2 55 -13 18 -14 18
-20 2z"/>
<path d="M1677 763 c-12 -12 -7 -50 8 -63 12 -10 15 -7 21 14 10 40 -8 70 -29
49z"/>
<path d="M1905 768 c-9 -22 -2 -68 10 -71 14 -3 19 63 6 76 -7 7 -12 5 -16 -5z"/>
<path d="M2014 756 c-3 -9 -3 -28 0 -42 6 -22 9 -24 22 -13 17 14 15 60 -3 67
-7 2 -16 -3 -19 -12z"/>
<path d="M2357 774 c-10 -11 -9 -72 2 -79 10 -5 31 24 31 42 0 16 -25 44 -33
37z"/>
<path d="M2587 747 c-3 -8 -1 -20 4 -28 6 -10 9 -7 9 14 0 29 -5 35 -13 14z"/>
<path d="M2695 768 c-9 -22 -2 -68 10 -71 14 -3 19 63 6 76 -7 7 -12 5 -16 -5z"/>
<path d="M3030 760 c-14 -25 2 -76 20 -65 12 8 13 55 1 74 -7 11 -11 9 -21 -9z"/>
<path d="M3145 768 c-9 -22 -2 -68 10 -71 14 -3 19 63 6 76 -7 7 -12 5 -16 -5z"/>
<path d="M3257 766 c-18 -47 2 -96 22 -57 14 26 14 33 -2 55 -13 18 -14 18
-20 2z"/>
<path d="M3364 755 c-8 -20 4 -65 16 -65 12 0 24 45 16 65 -7 19 -25 19 -32 0z"/>
<path d="M3479 759 c-8 -16 -8 -28 0 -46 15 -32 31 -20 31 22 0 41 -15 53 -31
24z"/>
<path d="M3707 766 c-18 -47 2 -96 22 -57 14 26 14 33 -2 55 -13 18 -14 18
-20 2z"/>
<path d="M3931 761 c-13 -23 3 -76 19 -66 13 8 13 72 1 80 -6 3 -15 -3 -20
-14z"/>
<path d="M4275 751 c-8 -26 13 -67 27 -53 13 13 6 64 -9 69 -6 2 -14 -5 -18
-16z"/>
<path d="M4614 755 c-8 -20 4 -65 16 -65 12 0 24 45 16 65 -7 19 -25 19 -32 0z"/>
<path d="M4957 766 c-18 -47 2 -96 22 -57 14 26 14 33 -2 55 -13 18 -14 18
-20 2z"/>
<path d="M5179 759 c-8 -16 -8 -28 0 -46 15 -32 31 -20 31 22 0 41 -15 53 -31
24z"/>
<path d="M5295 768 c-9 -22 -2 -68 10 -71 14 -3 19 63 6 76 -7 7 -12 5 -16 -5z"/>
<path d="M5407 766 c-18 -47 2 -96 22 -57 14 26 14 33 -2 55 -13 18 -14 18
-20 2z"/>
<path d="M5514 755 c-8 -20 4 -65 16 -65 12 0 24 45 16 65 -7 19 -25 19 -32 0z"/>
<path d="M5967 763 c-12 -12 -7 -50 8 -63 12 -10 15 -7 21 14 10 40 -8 70 -29
49z"/>
<path d="M6414 744 c-4 -17 -1 -31 9 -41 14 -15 16 -14 22 10 8 30 1 57 -14
57 -6 0 -14 -12 -17 -26z"/>
<path d="M6870 760 c-14 -25 2 -76 20 -65 12 8 13 55 1 74 -7 11 -11 9 -21 -9z"/>
<path d="M7204 755 c-8 -20 4 -65 16 -65 12 0 24 45 16 65 -7 19 -25 19 -32 0z"/>
<path d="M7435 768 c-9 -22 -2 -68 10 -71 14 -3 19 63 6 76 -7 7 -12 5 -16 -5z"/>
<path d="M7654 755 c-8 -20 4 -65 16 -65 12 0 24 45 16 65 -7 19 -25 19 -32 0z"/>
<path d="M7769 759 c-8 -16 -8 -28 0 -46 15 -32 31 -20 31 22 0 41 -15 53 -31
24z"/>
<path d="M7885 768 c-9 -22 -2 -68 10 -71 14 -3 19 63 6 76 -7 7 -12 5 -16 -5z"/>
<path d="M2592 565 c0 -16 2 -22 5 -12 2 9 2 23 0 30 -3 6 -5 -1 -5 -18z"/>
<path d="M5642 565 c0 -16 2 -22 5 -12 2 9 2 23 0 30 -3 6 -5 -1 -5 -18z"/>
<path d="M324 586 c-9 -23 0 -51 16 -51 10 0 15 10 15 29 0 32 -21 47 -31 22z"/>
<path d="M441 593 c-12 -23 -3 -65 13 -60 14 5 20 57 8 69 -7 7 -14 3 -21 -9z"/>
<path d="M667 604 c-11 -11 -8 -62 4 -69 12 -8 15 -6 23 21 7 21 -15 60 -27
48z"/>
<path d="M781 596 c-16 -20 -10 -61 9 -61 18 0 25 37 12 60 -8 14 -10 15 -21
1z"/>
<path d="M1006 603 c-3 -3 -6 -21 -6 -40 0 -23 5 -33 15 -33 10 0 15 10 15 34
0 34 -11 52 -24 39z"/>
<path d="M1117 596 c-16 -41 4 -86 24 -55 12 19 11 32 -4 53 -13 18 -14 18
-20 2z"/>
<path d="M1346 603 c-3 -3 -6 -21 -6 -40 0 -23 5 -33 15 -33 10 0 15 10 15 34
0 34 -11 52 -24 39z"/>
<path d="M1681 596 c-16 -19 -6 -69 12 -63 15 5 21 42 9 62 -8 15 -10 15 -21
1z"/>
<path d="M1796 603 c-3 -3 -6 -21 -6 -40 0 -23 5 -33 15 -33 10 0 15 10 15 34
0 34 -11 52 -24 39z"/>
<path d="M2015 587 c-8 -30 -1 -57 14 -57 19 0 25 51 8 67 -14 15 -16 14 -22
-10z"/>
<path d="M2354 596 c-8 -22 -1 -59 14 -64 8 -2 12 8 12 32 0 37 -16 57 -26 32z"/>
<path d="M2696 603 c-3 -3 -6 -21 -6 -40 0 -23 5 -33 15 -33 10 0 15 10 15 34
0 34 -11 52 -24 39z"/>
<path d="M3030 591 c-13 -25 -4 -64 13 -58 15 5 22 56 9 69 -7 7 -14 3 -22
-11z"/>
<path d="M3257 604 c-11 -11 -8 -62 4 -69 12 -8 15 -6 23 21 7 21 -15 60 -27
48z"/>
<path d="M3371 596 c-16 -20 -10 -61 9 -61 18 0 25 37 12 60 -8 14 -10 15 -21
1z"/>
<path d="M3596 603 c-3 -3 -6 -21 -6 -40 0 -23 5 -33 15 -33 10 0 15 10 15 34
0 34 -11 52 -24 39z"/>
<path d="M3821 596 c-16 -20 -10 -61 9 -61 18 0 25 37 12 60 -8 14 -10 15 -21
1z"/>
<path d="M3936 603 c-3 -3 -6 -21 -6 -40 0 -23 5 -33 15 -33 10 0 15 10 15 34
0 34 -11 52 -24 39z"/>
<path d="M4056 603 c-3 -3 -6 -21 -6 -40 0 -23 5 -33 15 -33 10 0 15 10 15 34
0 34 -11 52 -24 39z"/>
<path d="M4281 591 c-14 -25 -5 -64 12 -58 16 5 21 42 9 63 -9 16 -11 15 -21
-5z"/>
<path d="M4507 604 c-11 -11 -8 -62 4 -69 15 -10 22 0 22 30 0 28 -15 50 -26
39z"/>
<path d="M4614 586 c-9 -23 0 -51 16 -51 10 0 15 10 15 29 0 32 -21 47 -31 22z"/>
<path d="M4957 604 c-11 -11 -8 -62 4 -69 12 -8 15 -6 23 21 7 21 -15 60 -27
48z"/>
<path d="M5187 604 c-4 -4 -7 -23 -7 -41 0 -42 23 -41 28 1 4 29 -9 52 -21 40z"/>
<path d="M5296 603 c-3 -3 -6 -21 -6 -40 0 -23 5 -33 15 -33 10 0 15 10 15 34
0 34 -11 52 -24 39z"/>
<path d="M5521 596 c-16 -20 -10 -61 9 -61 18 0 25 37 12 60 -8 14 -10 15 -21
1z"/>
<path d="M5857 596 c-16 -41 4 -86 24 -55 12 19 11 32 -4 53 -13 18 -14 18
-20 2z"/>
<path d="M6086 603 c-3 -3 -6 -21 -6 -40 0 -23 5 -33 15 -33 10 0 15 10 15 34
0 34 -11 52 -24 39z"/>
<path d="M6305 587 c-8 -30 -1 -57 14 -57 19 0 25 51 8 67 -14 15 -16 14 -22
-10z"/>
<path d="M6754 586 c-8 -32 2 -59 19 -54 18 7 20 53 3 67 -13 11 -16 9 -22
-13z"/>
<path d="M6871 591 c-14 -25 -5 -64 12 -58 16 5 21 42 9 63 -9 16 -11 15 -21
-5z"/>
<path d="M7204 586 c-9 -23 0 -51 16 -51 10 0 15 10 15 29 0 32 -21 47 -31 22z"/>
<path d="M7436 603 c-3 -3 -6 -21 -6 -40 0 -23 5 -33 15 -33 10 0 15 10 15 34
0 34 -11 52 -24 39z"/>
<path d="M7770 591 c-13 -25 -4 -64 13 -58 15 5 22 56 9 69 -7 7 -14 3 -22
-11z"/>
<path d="M7886 603 c-3 -3 -6 -21 -6 -40 0 -23 5 -33 15 -33 10 0 15 10 15 34
0 34 -11 52 -24 39z"/>
<path d="M2592 400 c0 -14 2 -19 5 -12 2 6 2 18 0 25 -3 6 -5 1 -5 -13z"/>
<path d="M325 420 c-7 -23 2 -60 15 -60 13 0 22 37 15 60 -3 11 -10 20 -15 20
-5 0 -12 -9 -15 -20z"/>
<path d="M554 426 c-8 -22 -1 -59 14 -64 8 -2 12 8 12 32 0 37 -16 57 -26 32z"/>
<path d="M775 420 c-7 -23 2 -60 15 -60 5 0 12 9 15 20 7 23 -2 60 -15 60 -5
0 -12 -9 -15 -20z"/>
<path d="M1004 426 c-8 -22 -1 -59 14 -64 8 -2 12 8 12 32 0 37 -16 57 -26 32z"/>
<path d="M1676 416 c-10 -42 16 -78 30 -41 8 19 -3 65 -15 65 -5 0 -12 -11
-15 -24z"/>
<path d="M1904 426 c-8 -22 -1 -59 14 -64 8 -2 12 8 12 32 0 37 -16 57 -26 32z"/>
<path d="M2014 415 c-11 -43 15 -77 30 -39 7 19 -3 64 -15 64 -5 0 -11 -11
-15 -25z"/>
<path d="M2354 426 c-8 -22 -1 -59 14 -64 8 -2 12 8 12 32 0 37 -16 57 -26 32z"/>
<path d="M2804 426 c-8 -22 -1 -59 14 -64 8 -2 12 8 12 32 0 37 -16 57 -26 32z"/>
<path d="M3032 420 c-11 -29 -4 -62 12 -57 15 5 20 57 7 70 -7 7 -13 3 -19
-13z"/>
<path d="M3254 426 c-8 -22 -1 -59 14 -64 8 -2 12 8 12 32 0 37 -16 57 -26 32z"/>
<path d="M3487 433 c-4 -3 -7 -22 -7 -40 0 -42 23 -41 28 1 4 29 -9 52 -21 39z"/>
<path d="M3815 420 c-13 -40 17 -82 31 -45 8 19 -3 65 -16 65 -5 0 -12 -9 -15
-20z"/>
<path d="M3937 433 c-4 -3 -7 -22 -7 -40 0 -42 23 -41 28 1 4 29 -9 52 -21 39z"/>
<path d="M4281 423 c-12 -23 -3 -65 13 -60 14 5 20 57 8 69 -7 7 -14 3 -21 -9z"/>
<path d="M4504 426 c-8 -22 -1 -59 14 -64 8 -2 12 8 12 32 0 37 -16 57 -26 32z"/>
<path d="M4615 420 c-7 -23 2 -60 15 -60 13 0 22 37 15 60 -3 11 -10 20 -15
20 -5 0 -12 -9 -15 -20z"/>
<path d="M5065 420 c-7 -23 2 -60 15 -60 13 0 22 37 15 60 -3 11 -10 20 -15
20 -5 0 -12 -9 -15 -20z"/>
<path d="M5294 426 c-8 -22 -1 -59 14 -64 8 -2 12 8 12 32 0 37 -16 57 -26 32z"/>
<path d="M5515 420 c-13 -40 17 -82 31 -45 8 19 -3 65 -16 65 -5 0 -12 -9 -15
-20z"/>
<path d="M6087 433 c-4 -3 -7 -22 -7 -40 0 -42 23 -41 28 1 4 29 -9 52 -21 39z"/>
<path d="M6421 421 c-14 -25 -5 -64 12 -58 16 5 21 42 9 63 -9 16 -11 15 -21
-5z"/>
<path d="M6754 415 c-11 -46 17 -78 31 -35 7 23 -2 60 -15 60 -6 0 -12 -11
-16 -25z"/>
<path d="M6872 423 c-13 -23 -4 -65 12 -60 15 5 20 42 8 63 -9 16 -11 15 -20
-3z"/>
<path d="M7322 420 c-11 -29 -4 -62 12 -57 15 5 20 57 7 70 -7 7 -13 3 -19
-13z"/>
<path d="M7777 433 c-4 -3 -7 -22 -7 -40 0 -42 23 -41 28 1 4 29 -9 52 -21 39z"/>
<path d="M1462 230 c0 -14 2 -19 5 -12 2 6 2 18 0 25 -3 6 -5 1 -5 -13z"/>
<path d="M2592 230 c0 -14 2 -19 5 -12 2 6 2 18 0 25 -3 6 -5 1 -5 -13z"/>
<path d="M5637 254 c-11 -11 -8 -64 3 -64 6 0 13 7 17 16 7 18 -9 58 -20 48z"/>
<path d="M325 250 c-7 -23 2 -60 15 -60 5 0 12 9 15 20 7 23 -2 60 -15 60 -5
0 -12 -9 -15 -20z"/>
<path d="M447 264 c-4 -4 -7 -23 -7 -41 0 -42 23 -41 28 1 4 29 -9 52 -21 40z"/>
<path d="M555 257 c-9 -22 -2 -62 10 -60 6 1 11 14 13 29 4 32 -14 56 -23 31z"/>
<path d="M664 256 c-8 -22 -1 -59 14 -64 8 -2 12 9 12 37 0 40 -15 55 -26 27z"/>
<path d="M1005 257 c-9 -22 -2 -62 10 -60 6 1 11 14 13 29 4 32 -14 56 -23 31z"/>
<path d="M1114 245 c-7 -28 0 -55 16 -55 5 0 10 18 10 40 0 44 -16 54 -26 15z"/>
<path d="M1347 264 c-4 -4 -7 -23 -7 -41 0 -42 23 -41 28 1 4 29 -9 52 -21 40z"/>
<path d="M1904 256 c-8 -22 -1 -59 14 -64 8 -2 12 8 12 32 0 37 -16 57 -26 32z"/>
<path d="M2127 250 c-11 -41 15 -82 29 -45 8 19 -3 65 -15 65 -5 0 -11 -9 -14
-20z"/>
<path d="M2354 256 c-8 -22 -1 -59 14 -64 8 -2 12 8 12 32 0 37 -16 57 -26 32z"/>
<path d="M2695 257 c-9 -22 -2 -62 10 -60 6 1 11 14 13 29 4 32 -14 56 -23 31z"/>
<path d="M2804 256 c-8 -22 -1 -59 14 -64 8 -2 12 8 12 32 0 37 -16 57 -26 32z"/>
<path d="M3145 257 c-9 -22 -2 -62 10 -60 6 1 11 14 13 29 4 32 -14 56 -23 31z"/>
<path d="M3254 256 c-8 -22 -1 -59 14 -64 8 -2 12 9 12 37 0 40 -15 55 -26 27z"/>
<path d="M3365 250 c-7 -23 2 -60 15 -60 13 0 22 37 15 60 -3 11 -10 20 -15
20 -5 0 -12 -9 -15 -20z"/>
<path d="M3595 257 c-9 -22 -2 -62 10 -60 6 1 11 14 13 29 4 32 -14 56 -23 31z"/>
<path d="M3704 256 c-8 -22 -1 -59 14 -64 8 -2 12 9 12 37 0 40 -15 55 -26 27z"/>
<path d="M4615 250 c-7 -23 2 -60 15 -60 13 0 22 37 15 60 -3 11 -10 20 -15
20 -5 0 -12 -9 -15 -20z"/>
<path d="M4954 256 c-8 -22 -1 -59 14 -64 8 -2 12 9 12 37 0 40 -15 55 -26 27z"/>
<path d="M5065 250 c-7 -23 2 -60 15 -60 13 0 22 37 15 60 -3 11 -10 20 -15
20 -5 0 -12 -9 -15 -20z"/>
<path d="M5187 264 c-4 -4 -7 -23 -7 -41 0 -42 23 -41 28 1 4 29 -9 52 -21 40z"/>
<path d="M5404 256 c-8 -22 -1 -59 14 -64 8 -2 12 9 12 37 0 40 -15 55 -26 27z"/>
<path d="M5515 250 c-7 -23 2 -60 15 -60 5 0 12 9 15 20 7 23 -2 60 -15 60 -5
0 -12 -9 -15 -20z"/>
<path d="M5854 245 c-7 -28 0 -55 16 -55 5 0 10 18 10 40 0 44 -16 54 -26 15z"/>
<path d="M5966 246 c-11 -45 16 -78 29 -36 7 22 -2 60 -15 60 -4 0 -11 -11
-14 -24z"/>
<path d="M6417 250 c-11 -41 15 -82 29 -45 8 19 -3 65 -15 65 -5 0 -11 -9 -14
-20z"/>
<path d="M6644 256 c-8 -22 -1 -59 14 -64 8 -2 12 8 12 32 0 37 -16 57 -26 32z"/>
<path d="M6870 230 c0 -29 4 -40 13 -37 6 2 12 19 12 37 0 18 -6 35 -12 38 -9
2 -13 -9 -13 -38z"/>
<path d="M7205 250 c-7 -23 2 -60 15 -60 5 0 12 9 15 20 7 23 -2 60 -15 60 -5
0 -12 -9 -15 -20z"/>
<path d="M7320 230 c0 -29 4 -40 13 -37 6 2 12 19 12 37 0 18 -6 35 -12 38 -9
2 -13 -9 -13 -38z"/>
<path d="M7435 257 c-9 -22 -2 -62 10 -60 6 1 11 14 13 29 4 32 -14 56 -23 31z"/>
<path d="M7655 250 c-7 -23 2 -60 15 -60 5 0 12 9 15 20 7 23 -2 60 -15 60 -5
0 -12 -9 -15 -20z"/>
<path d="M7777 264 c-4 -4 -7 -23 -7 -41 0 -42 23 -41 28 1 4 29 -9 52 -21 40z"/>
<path d="M7885 257 c-9 -22 -2 -62 10 -60 6 1 11 14 13 29 4 32 -14 56 -23 31z"/>
<path d="M0 900 c0 -25 4 -39 10 -35 13 8 13 62 0 70 -6 4 -10 -10 -10 -35z"/>
<path d="M7992 730 c0 -19 2 -27 5 -17 2 9 2 25 0 35 -3 9 -5 1 -5 -18z"/>
<path d="M0 572 c0 -26 4 -41 10 -37 13 8 13 45 0 65 -7 11 -10 3 -10 -28z"/>
<path d="M0 400 c0 -25 4 -39 10 -35 13 8 13 62 0 70 -6 4 -10 -10 -10 -35z"/>
<path d="M7992 400 c0 -19 2 -27 5 -17 2 9 2 25 0 35 -3 9 -5 1 -5 -18z"/>
<path d="M214 86 c-8 -21 -1 -61 11 -61 6 0 11 17 13 38 3 37 -13 52 -24 23z"/>
<path d="M325 80 c-7 -23 2 -60 15 -60 5 0 12 9 15 20 7 23 -2 60 -15 60 -5 0
-12 -9 -15 -20z"/>
<path d="M555 87 c-9 -22 -2 -62 10 -60 6 1 11 14 13 29 4 32 -14 56 -23 31z"/>
<path d="M664 85 c-8 -21 4 -67 16 -60 13 8 13 75 0 75 -6 0 -13 -7 -16 -15z"/>
<path d="M1114 85 c-8 -21 4 -67 16 -60 13 8 13 75 0 75 -6 0 -13 -7 -16 -15z"/>
<path d="M1795 87 c-9 -22 -2 -62 10 -60 6 1 11 14 13 29 4 32 -14 56 -23 31z"/>
<path d="M1905 87 c-9 -22 -2 -62 10 -60 6 1 11 14 13 29 4 32 -14 56 -23 31z"/>
<path d="M2130 66 c0 -19 4 -37 9 -41 13 -7 24 30 16 55 -10 32 -25 23 -25
-14z"/>
<path d="M2354 86 c-8 -21 -1 -61 11 -61 6 0 11 17 13 38 3 37 -13 52 -24 23z"/>
<path d="M2465 80 c-7 -22 2 -60 15 -60 11 0 21 45 14 64 -8 22 -21 20 -29 -4z"/>
<path d="M2580 66 c0 -19 4 -38 10 -41 12 -7 24 39 16 60 -10 27 -26 16 -26
-19z"/>
<path d="M2804 86 c-8 -21 -1 -61 11 -61 6 0 11 17 13 38 3 37 -13 52 -24 23z"/>
<path d="M3145 87 c-9 -22 -2 -62 10 -60 6 1 11 14 13 29 4 32 -14 56 -23 31z"/>
<path d="M3365 80 c-7 -23 2 -60 15 -60 13 0 22 37 15 60 -3 11 -10 20 -15 20
-5 0 -12 -9 -15 -20z"/>
<path d="M3482 64 c2 -22 8 -38 13 -36 15 3 12 65 -3 70 -10 3 -13 -6 -10 -34z"/>
<path d="M3704 85 c-8 -21 4 -67 16 -60 13 8 13 75 0 75 -6 0 -13 -7 -16 -15z"/>
<path d="M3816 84 c-7 -19 3 -64 14 -64 13 0 22 38 15 60 -8 24 -21 26 -29 4z"/>
<path d="M4054 86 c-8 -21 -1 -61 11 -61 6 0 11 17 13 38 3 37 -13 52 -24 23z"/>
<path d="M4615 80 c-7 -23 2 -60 15 -60 13 0 22 37 15 60 -3 11 -10 20 -15 20
-5 0 -12 -9 -15 -20z"/>
<path d="M4732 64 c2 -22 8 -38 13 -36 15 3 12 65 -3 70 -10 3 -13 -6 -10 -34z"/>
<path d="M5065 80 c-7 -23 2 -60 15 -60 13 0 22 37 15 60 -3 11 -10 20 -15 20
-5 0 -12 -9 -15 -20z"/>
<path d="M5182 64 c2 -22 8 -38 13 -36 15 3 12 65 -3 70 -10 3 -13 -6 -10 -34z"/>
<path d="M5404 85 c-8 -21 4 -67 16 -60 13 8 13 75 0 75 -6 0 -13 -7 -16 -15z"/>
<path d="M5632 64 c2 -22 8 -38 13 -36 15 3 12 65 -3 70 -10 3 -13 -6 -10 -34z"/>
<path d="M5967 78 c-3 -12 -1 -30 5 -41 10 -19 11 -19 20 -3 11 19 3 66 -11
66 -5 0 -11 -10 -14 -22z"/>
<path d="M6085 87 c-9 -22 -2 -62 10 -60 6 1 11 14 13 29 4 32 -14 56 -23 31z"/>
<path d="M6305 80 c-7 -22 2 -60 15 -60 11 0 19 36 13 60 -3 11 -9 20 -13 20
-5 0 -12 -9 -15 -20z"/>
<path d="M6418 83 c-3 -11 -1 -30 4 -43 8 -23 10 -23 19 -7 13 21 8 59 -7 64
-6 2 -14 -4 -16 -14z"/>
<path d="M6644 86 c-8 -21 -1 -61 11 -61 6 0 11 17 13 38 3 37 -13 52 -24 23z"/>
<path d="M6870 66 c0 -19 4 -38 10 -41 12 -7 24 39 16 60 -10 27 -26 16 -26
-19z"/>
<path d="M6985 87 c-9 -22 -2 -62 10 -60 6 1 11 14 13 29 4 32 -14 56 -23 31z"/>
<path d="M7322 64 c2 -22 8 -38 13 -36 15 3 12 65 -3 70 -10 3 -13 -6 -10 -34z"/>
<path d="M7435 87 c-9 -22 -2 -62 10 -60 6 1 11 14 13 29 4 32 -14 56 -23 31z"/>
<path d="M7655 80 c-7 -23 2 -60 15 -60 5 0 12 9 15 20 7 23 -2 60 -15 60 -5
0 -12 -9 -15 -20z"/>
<path d="M7885 87 c-9 -22 -2 -62 10 -60 6 1 11 14 13 29 4 32 -14 56 -23 31z"/>
<path d="M7992 65 c0 -16 2 -22 5 -12 2 9 2 23 0 30 -3 6 -5 -1 -5 -18z"/>
<path d="M1462 60 c0 -14 2 -19 5 -12 2 6 2 18 0 25 -3 6 -5 1 -5 -13z"/>
</g>
</svg>
